<mxfile host="Electron" agent="Mozilla/5.0 (Windows NT 10.0; Win64; x64) AppleWebKit/537.36 (KHTML, like Gecko) draw.io/24.7.17 Chrome/128.0.6613.36 Electron/32.0.1 Safari/537.36" version="24.7.17">
  <diagram id="C5RBs43oDa-KdzZeNtuy" name="Page-1">
    <mxGraphModel dx="2171" dy="1020" grid="1" gridSize="10" guides="1" tooltips="1" connect="1" arrows="1" fold="1" page="0" pageScale="1" pageWidth="827" pageHeight="1169" background="#2B4739" math="0" shadow="0">
      <root>
        <mxCell id="WIyWlLk6GJQsqaUBKTNV-0" />
        <mxCell id="WIyWlLk6GJQsqaUBKTNV-1" parent="WIyWlLk6GJQsqaUBKTNV-0" />
        <object label="&lt;div&gt;Organizations&lt;/div&gt;" placeholders="1" id="oLIk3Z_Zjyd05N_7NpLE-1">
          <mxCell style="swimlane;whiteSpace=wrap;html=1;fillColor=#6d8764;fontColor=#ffffff;strokeColor=#3A5431;swimlaneFillColor=#A3A3A3;startSize=40;" vertex="1" parent="WIyWlLk6GJQsqaUBKTNV-1">
            <mxGeometry x="150" y="110" width="250" height="240" as="geometry" />
          </mxCell>
        </object>
        <object label="&lt;div style=&quot;font-size: 16px;&quot;&gt;&lt;span style=&quot;color: rgb(0, 0, 0); background-color: initial;&quot;&gt;&lt;font style=&quot;font-size: 16px;&quot;&gt;&lt;b style=&quot;&quot;&gt;ID_org (INT,&amp;nbsp;&lt;/b&gt;&lt;/font&gt;&lt;/span&gt;&lt;/div&gt;&lt;div style=&quot;font-size: 16px;&quot;&gt;&lt;span style=&quot;color: rgb(0, 0, 0); background-color: initial;&quot;&gt;&lt;font style=&quot;font-size: 16px;&quot;&gt;&lt;b style=&quot;&quot;&gt;autoincremen&lt;/b&gt;&lt;/font&gt;&lt;/span&gt;&lt;span style=&quot;color: rgba(0, 0, 0, 0); font-family: monospace; font-size: 0px; background-color: initial;&quot;&gt;%3CmxGraphModel%3E%3Croot%3E%3CmxCell%20id%3D%220%22%2F%3E%3CmxCell%20id%3D%221%22%20parent%3D%220%22%2F%3E%3Cobject%20label%3D%22%26lt%3Bdiv%26gt%3BOrganizations%26lt%3B%2Fdiv%26gt%3B%22%20placeholders%3D%221%22%20id%3D%222%22%3E%3CmxCell%20style%3D%22swimlane%3BwhiteSpace%3Dwrap%3Bhtml%3D1%3BfillColor%3D%236d8764%3BfontColor%3D%23ffffff%3BstrokeColor%3D%233A5431%3BswimlaneFillColor%3D%23A3A3A3%3B%22%20vertex%3D%221%22%20parent%3D%221%22%3E%3CmxGeometry%20x%3D%22560%22%20y%3D%22370%22%20width%3D%22220%22%20height%3D%22220%22%20as%3D%22geometry%22%2F%3E%3C%2FmxCell%3E%3C%2Fobject%3E%3Cobject%20label%3D%22%26lt%3Bdiv%20style%3D%26quot%3Bfont-size%3A%2016px%3B%26quot%3B%26gt%3B%26lt%3Bspan%20style%3D%26quot%3Bcolor%3A%20rgb(0%2C%200%2C%200)%3B%20background-color%3A%20initial%3B%26quot%3B%26gt%3B%26lt%3Bfont%20style%3D%26quot%3Bfont-size%3A%2016px%3B%26quot%3B%26gt%3B%26lt%3Bb%20style%3D%26quot%3B%26quot%3B%26gt%3BID_org%20(INT%2C%26amp%3Bnbsp%3B%26lt%3B%2Fb%26gt%3B%26lt%3B%2Ffont%26gt%3B%26lt%3B%2Fspan%26gt%3B%26lt%3B%2Fdiv%26gt%3B%26lt%3Bdiv%20style%3D%26quot%3Bfont-size%3A%2016px%3B%26quot%3B%26gt%3B%26lt%3Bspan%20style%3D%26quot%3Bcolor%3A%20rgb(0%2C%200%2C%200)%3B%20background-color%3A%20initial%3B%26quot%3B%26gt%3B%26lt%3Bfont%20style%3D%26quot%3Bfont-size%3A%2016px%3B%26quot%3B%26gt%3B%26lt%3Bb%20style%3D%26quot%3B%26quot%3B%26gt%3Bautoicrement)%26lt%3B%2Fb%26gt%3B%26lt%3B%2Ffont%26gt%3B%26lt%3B%2Fspan%26gt%3B%26lt%3B%2Fdiv%26gt%3B%22%20id%3D%223%22%3E%3CmxCell%20style%3D%22text%3Bhtml%3D1%3Balign%3Dleft%3BverticalAlign%3Dmiddle%3Bresizable%3D1%3Bpoints%3D%5B%5D%3Bautosize%3D0%3BstrokeColor%3Dnone%3BfillColor%3Dnone%3BspacingTop%3D0%3Bspacing%3D1%3BspacingRight%3D0%3BspacingLeft%3D2%3BabsoluteArcSize%3D0%3BresizeWidth%3D1%3BresizeHeight%3D1%3Brotation%3D0%3BimageHeight%3D24%3BimageWidth%3D24%3BstrokeWidth%3D1%3Bdashed%3D1%3BdashPattern%3D1%204%3BnoLabel%3D0%3BlabelPadding%3D0%3BmetaEdit%3D0%3BmovableLabel%3D0%3B%22%20vertex%3D%221%22%20parent%3D%222%22%3E%3CmxGeometry%20y%3D%2226%22%20width%3D%22220%22%20height%3D%2250%22%20as%3D%22geometry%22%3E%3CmxPoint%20x%3D%226%22%20y%3D%22-2%22%20as%3D%22offset%22%2F%3E%3C%2FmxGeometry%3E%3C%2FmxCell%3E%3C%2Fobject%3E%3C%2Froot%3E%3C%2FmxGraphModel%3E&lt;/span&gt;&lt;b style=&quot;background-color: initial; color: rgb(0, 0, 0);&quot;&gt;t)&lt;/b&gt;&lt;/div&gt;" id="oLIk3Z_Zjyd05N_7NpLE-2">
          <mxCell style="text;html=1;align=left;verticalAlign=middle;resizable=1;points=[];autosize=0;strokeColor=none;fillColor=none;spacingTop=0;spacing=1;spacingRight=0;spacingLeft=2;absoluteArcSize=0;resizeWidth=1;resizeHeight=1;rotation=0;imageHeight=24;imageWidth=24;strokeWidth=1;dashed=1;dashPattern=1 4;noLabel=0;labelPadding=0;metaEdit=0;movableLabel=0;" vertex="1" parent="oLIk3Z_Zjyd05N_7NpLE-1">
            <mxGeometry y="50" width="240" height="50" as="geometry">
              <mxPoint x="6" y="-2" as="offset" />
            </mxGeometry>
          </mxCell>
        </object>
        <object label="&lt;div style=&quot;font-size: 16px;&quot;&gt;&lt;span style=&quot;color: rgb(0, 0, 0); background-color: initial;&quot;&gt;&lt;font style=&quot;font-size: 16px;&quot;&gt;&lt;b style=&quot;&quot;&gt;Name_org (TEXT&lt;/b&gt;&lt;/font&gt;&lt;/span&gt;&lt;span style=&quot;background-color: initial; color: rgba(0, 0, 0, 0); font-family: monospace; font-size: 0px;&quot;&gt;3CmxGraphModel%3E%3Croot%3E%3CmxCell%20id%3D%220%22%2F%3E%3CmxCell%20id%3D%221%22%20parent%3D%220%22%2F%3E%3Cobject%20label%3D%22%26lt%3Bdiv%26gt%3BOrganizations%26lt%3B%2Fdiv%26gt%3B%22%20placeholders%3D%221%22%20id%3D%222%22%3E%3CmxCell%20style%3D%22swimlane%3BwhiteSpace%3Dwrap%3Bhtml%3D1%3BfillColor%3D%236d8764%3BfontColor%3D%23ffffff%3BstrokeColor%3D%233A5431%3BswimlaneFillColor%3D%23A3A3A3%3B%22%20vertex%3D%221%22%20parent%3D%221%22%3E%3CmxGeometry%20x%3D%22560%22%20y%3D%22370%22%20width%3D%22220%22%20height%3D%22220%22%20as%3D%22geometry%22%2F%3E%3C%2FmxCell%3E%3C%2Fobject%3E%3Cobject%20label%3D%22%26lt%3Bdiv%20style%3D%26quot%3Bfont-size%3A%2016px%3B%26quot%3B%26gt%3B%26lt%3Bspan%20style%3D%26quot%3Bcolor%3A%20rgb(0%2C%200%2C%200)%3B%20background-color%3A%20initial%3B%26quot%3B%26gt%3B%26lt%3Bfont%20style%3D%26quot%3Bfont-size%3A%2016px%3B%26quot%3B%26gt%3B%26lt%3Bb%20style%3D%26quot%3B%26quot%3B%26gt%3BID_org%20(INT%2C%26amp%3Bnbsp%3B%26lt%3B%2Fb%26gt%3B%26lt%3B%2Ffont%26gt%3B%26lt%3B%2Fspan%26gt%3B%26lt%3B%2Fdiv%26gt%3B%26lt%3Bdiv%20style%3D%26quot%3Bfont-size%3A%2016px%3B%26quot%3B%26gt%3B%26lt%3Bspan%20style%3D%26quot%3Bcolor%3A%20rgb(0%2C%200%2C%200)%3B%20background-color%3A%20initial%3B%26quot%3B%26gt%3B%26lt%3Bfont%20style%3D%26quot%3Bfont-size%3A%2016px%3B%26quot%3B%26gt%3B%26lt%3Bb%20style%3D%26quot%3B%26quot%3B%26gt%3Bautoicrement)%26lt%3B%2Fb%26gt%3B%26lt%3B%2Ffont%26gt%3B%26lt%3B%2Fspan%26gt%3B%26lt%3B%2Fdiv%26gt%3B%22%20id%3D%223%22%3E%3CmxCell%20style%3D%22text%3Bhtml%3D1%3Balign%3Dleft%3BverticalAlign%3Dmiddle%3Bresizable%3D1%3Bpoints%3D%5B%5D%3Bautosize%3D0%3BstrokeColor%3Dnone%3BfillColor%3Dnone%3BspacingTop%3D0%3Bspacing%3D1%3BspacingRight%3D0%3BspacingLeft%3D2%3BabsoluteArcSize%3D0%3BresizeWidth%3D1%3BresizeHeight%3D1%3Brotation%3D0%3BimageHeight%3D24%3BimageWidth%3D24%3BstrokeWidth%3D1%3Bdashed%3D1%3BdashPattern%3D1%204%3BnoLabel%3D0%3BlabelPadding%3D0%3BmetaEdit%3D0%3BmovableLabel%3D0%3B%22%20vertex%3D%221%22%20parent%3D%222%22%3E%3CmxGeometry%20y%3D%2226%22%20width%3D%22220%22%20height%3D%2250%22%20as%3D%22geometry%22%3E%3CmxPoint%20x%3D%226%22%20y%3D%22-2%22%20as%3D%22offset%22%2F%3E%3C%2FmxGeometry%3E%3C%2FmxCell%3E%3C%2Fobject%3E%3C%2Froot%3E%3C%2FmxGraphMode&lt;/span&gt;&lt;b style=&quot;background-color: initial; color: rgb(0, 0, 0);&quot;&gt;)&lt;/b&gt;&lt;/div&gt;" id="oLIk3Z_Zjyd05N_7NpLE-11">
          <mxCell style="text;html=1;align=left;verticalAlign=middle;resizable=1;points=[];autosize=0;strokeColor=none;fillColor=none;spacingTop=0;spacing=1;spacingRight=0;spacingLeft=2;absoluteArcSize=0;resizeWidth=1;resizeHeight=1;rotation=0;imageHeight=24;imageWidth=24;strokeWidth=1;dashed=1;dashPattern=1 4;noLabel=0;labelPadding=0;metaEdit=0;movableLabel=0;" vertex="1" parent="oLIk3Z_Zjyd05N_7NpLE-1">
            <mxGeometry y="92" width="240" height="50" as="geometry">
              <mxPoint x="6" y="-2" as="offset" />
            </mxGeometry>
          </mxCell>
        </object>
        <object label="&lt;div style=&quot;font-size: 16px;&quot;&gt;&lt;font color=&quot;#000000&quot;&gt;&lt;b&gt;Comment (TEXT)&lt;/b&gt;&lt;/font&gt;&lt;/div&gt;" id="oLIk3Z_Zjyd05N_7NpLE-12">
          <mxCell style="text;html=1;align=left;verticalAlign=middle;resizable=1;points=[];autosize=0;strokeColor=none;fillColor=none;spacingTop=0;spacing=1;spacingRight=0;spacingLeft=2;absoluteArcSize=0;resizeWidth=1;resizeHeight=1;rotation=0;imageHeight=24;imageWidth=24;strokeWidth=1;dashed=1;dashPattern=1 4;noLabel=0;labelPadding=0;metaEdit=0;movableLabel=0;" vertex="1" parent="oLIk3Z_Zjyd05N_7NpLE-1">
            <mxGeometry y="134" width="240" height="50" as="geometry">
              <mxPoint x="6" y="-2" as="offset" />
            </mxGeometry>
          </mxCell>
        </object>
        <object label="&lt;div&gt;Departments&lt;/div&gt;" placeholders="1" id="oLIk3Z_Zjyd05N_7NpLE-13">
          <mxCell style="swimlane;whiteSpace=wrap;html=1;fillColor=#6d8764;fontColor=#ffffff;strokeColor=#3A5431;swimlaneFillColor=#A3A3A3;startSize=40;" vertex="1" parent="WIyWlLk6GJQsqaUBKTNV-1">
            <mxGeometry x="100" y="410" width="250" height="250" as="geometry" />
          </mxCell>
        </object>
        <object label="&lt;div style=&quot;font-size: 16px;&quot;&gt;&lt;span style=&quot;color: rgb(0, 0, 0); background-color: initial;&quot;&gt;&lt;font style=&quot;font-size: 16px;&quot;&gt;&lt;b style=&quot;&quot;&gt;ID_dep (INT,&amp;nbsp;&lt;/b&gt;&lt;/font&gt;&lt;/span&gt;&lt;/div&gt;&lt;div style=&quot;font-size: 16px;&quot;&gt;&lt;span style=&quot;color: rgb(0, 0, 0); background-color: initial;&quot;&gt;&lt;font style=&quot;font-size: 16px;&quot;&gt;&lt;b style=&quot;&quot;&gt;autoincremen&lt;/b&gt;&lt;/font&gt;&lt;/span&gt;&lt;span style=&quot;color: rgba(0, 0, 0, 0); font-family: monospace; font-size: 0px; background-color: initial;&quot;&gt;%3CmxGraphModel%3E%3Croot%3E%3CmxCell%20id%3D%220%22%2F%3E%3CmxCell%20id%3D%221%22%20parent%3D%220%22%2F%3E%3Cobject%20label%3D%22%26lt%3Bdiv%26gt%3BOrganizations%26lt%3B%2Fdiv%26gt%3B%22%20placeholders%3D%221%22%20id%3D%222%22%3E%3CmxCell%20style%3D%22swimlane%3BwhiteSpace%3Dwrap%3Bhtml%3D1%3BfillColor%3D%236d8764%3BfontColor%3D%23ffffff%3BstrokeColor%3D%233A5431%3BswimlaneFillColor%3D%23A3A3A3%3B%22%20vertex%3D%221%22%20parent%3D%221%22%3E%3CmxGeometry%20x%3D%22560%22%20y%3D%22370%22%20width%3D%22220%22%20height%3D%22220%22%20as%3D%22geometry%22%2F%3E%3C%2FmxCell%3E%3C%2Fobject%3E%3Cobject%20label%3D%22%26lt%3Bdiv%20style%3D%26quot%3Bfont-size%3A%2016px%3B%26quot%3B%26gt%3B%26lt%3Bspan%20style%3D%26quot%3Bcolor%3A%20rgb(0%2C%200%2C%200)%3B%20background-color%3A%20initial%3B%26quot%3B%26gt%3B%26lt%3Bfont%20style%3D%26quot%3Bfont-size%3A%2016px%3B%26quot%3B%26gt%3B%26lt%3Bb%20style%3D%26quot%3B%26quot%3B%26gt%3BID_org%20(INT%2C%26amp%3Bnbsp%3B%26lt%3B%2Fb%26gt%3B%26lt%3B%2Ffont%26gt%3B%26lt%3B%2Fspan%26gt%3B%26lt%3B%2Fdiv%26gt%3B%26lt%3Bdiv%20style%3D%26quot%3Bfont-size%3A%2016px%3B%26quot%3B%26gt%3B%26lt%3Bspan%20style%3D%26quot%3Bcolor%3A%20rgb(0%2C%200%2C%200)%3B%20background-color%3A%20initial%3B%26quot%3B%26gt%3B%26lt%3Bfont%20style%3D%26quot%3Bfont-size%3A%2016px%3B%26quot%3B%26gt%3B%26lt%3Bb%20style%3D%26quot%3B%26quot%3B%26gt%3Bautoicrement)%26lt%3B%2Fb%26gt%3B%26lt%3B%2Ffont%26gt%3B%26lt%3B%2Fspan%26gt%3B%26lt%3B%2Fdiv%26gt%3B%22%20id%3D%223%22%3E%3CmxCell%20style%3D%22text%3Bhtml%3D1%3Balign%3Dleft%3BverticalAlign%3Dmiddle%3Bresizable%3D1%3Bpoints%3D%5B%5D%3Bautosize%3D0%3BstrokeColor%3Dnone%3BfillColor%3Dnone%3BspacingTop%3D0%3Bspacing%3D1%3BspacingRight%3D0%3BspacingLeft%3D2%3BabsoluteArcSize%3D0%3BresizeWidth%3D1%3BresizeHeight%3D1%3Brotation%3D0%3BimageHeight%3D24%3BimageWidth%3D24%3BstrokeWidth%3D1%3Bdashed%3D1%3BdashPattern%3D1%204%3BnoLabel%3D0%3BlabelPadding%3D0%3BmetaEdit%3D0%3BmovableLabel%3D0%3B%22%20vertex%3D%221%22%20parent%3D%222%22%3E%3CmxGeometry%20y%3D%2226%22%20width%3D%22220%22%20height%3D%2250%22%20as%3D%22geometry%22%3E%3CmxPoint%20x%3D%226%22%20y%3D%22-2%22%20as%3D%22offset%22%2F%3E%3C%2FmxGeometry%3E%3C%2FmxCell%3E%3C%2Fobject%3E%3C%2Froot%3E%3C%2FmxGraphModel%3E&lt;/span&gt;&lt;b style=&quot;background-color: initial; color: rgb(0, 0, 0);&quot;&gt;t)&lt;/b&gt;&lt;/div&gt;" id="oLIk3Z_Zjyd05N_7NpLE-14">
          <mxCell style="text;html=1;align=left;verticalAlign=middle;resizable=1;points=[];autosize=0;strokeColor=none;fillColor=none;spacingTop=0;spacing=1;spacingRight=0;spacingLeft=2;absoluteArcSize=0;resizeWidth=1;resizeHeight=1;rotation=0;imageHeight=24;imageWidth=24;strokeWidth=1;dashed=1;dashPattern=1 4;noLabel=0;labelPadding=0;metaEdit=0;movableLabel=0;" vertex="1" parent="oLIk3Z_Zjyd05N_7NpLE-13">
            <mxGeometry y="50" width="240" height="50" as="geometry">
              <mxPoint x="6" y="-2" as="offset" />
            </mxGeometry>
          </mxCell>
        </object>
        <object label="&lt;div style=&quot;font-size: 16px;&quot;&gt;&lt;span style=&quot;color: rgb(0, 0, 0); background-color: initial;&quot;&gt;&lt;font style=&quot;font-size: 16px;&quot;&gt;&lt;b style=&quot;&quot;&gt;ID_org (INT&lt;/b&gt;&lt;/font&gt;&lt;/span&gt;&lt;span style=&quot;background-color: initial; color: rgba(0, 0, 0, 0); font-family: monospace; font-size: 0px;&quot;&gt;3CmxGraphModel%3E%3Croot%3E%3CmxCell%20id%3D%220%22%2F%3E%3CmxCell%20id%3D%221%22%20parent%3D%220%22%2F%3E%3Cobject%20label%3D%22%26lt%3Bdiv%26gt%3BOrganizations%26lt%3B%2Fdiv%26gt%3B%22%20placeholders%3D%221%22%20id%3D%222%22%3E%3CmxCell%20style%3D%22swimlane%3BwhiteSpace%3Dwrap%3Bhtml%3D1%3BfillColor%3D%236d8764%3BfontColor%3D%23ffffff%3BstrokeColor%3D%233A5431%3BswimlaneFillColor%3D%23A3A3A3%3B%22%20vertex%3D%221%22%20parent%3D%221%22%3E%3CmxGeometry%20x%3D%22560%22%20y%3D%22370%22%20width%3D%22220%22%20height%3D%22220%22%20as%3D%22geometry%22%2F%3E%3C%2FmxCell%3E%3C%2Fobject%3E%3Cobject%20label%3D%22%26lt%3Bdiv%20style%3D%26quot%3Bfont-size%3A%2016px%3B%26quot%3B%26gt%3B%26lt%3Bspan%20style%3D%26quot%3Bcolor%3A%20rgb(0%2C%200%2C%200)%3B%20background-color%3A%20initial%3B%26quot%3B%26gt%3B%26lt%3Bfont%20style%3D%26quot%3Bfont-size%3A%2016px%3B%26quot%3B%26gt%3B%26lt%3Bb%20style%3D%26quot%3B%26quot%3B%26gt%3BID_org%20(INT%2C%26amp%3Bnbsp%3B%26lt%3B%2Fb%26gt%3B%26lt%3B%2Ffont%26gt%3B%26lt%3B%2Fspan%26gt%3B%26lt%3B%2Fdiv%26gt%3B%26lt%3Bdiv%20style%3D%26quot%3Bfont-size%3A%2016px%3B%26quot%3B%26gt%3B%26lt%3Bspan%20style%3D%26quot%3Bcolor%3A%20rgb(0%2C%200%2C%200)%3B%20background-color%3A%20initial%3B%26quot%3B%26gt%3B%26lt%3Bfont%20style%3D%26quot%3Bfont-size%3A%2016px%3B%26quot%3B%26gt%3B%26lt%3Bb%20style%3D%26quot%3B%26quot%3B%26gt%3Bautoicrement)%26lt%3B%2Fb%26gt%3B%26lt%3B%2Ffont%26gt%3B%26lt%3B%2Fspan%26gt%3B%26lt%3B%2Fdiv%26gt%3B%22%20id%3D%223%22%3E%3CmxCell%20style%3D%22text%3Bhtml%3D1%3Balign%3Dleft%3BverticalAlign%3Dmiddle%3Bresizable%3D1%3Bpoints%3D%5B%5D%3Bautosize%3D0%3BstrokeColor%3Dnone%3BfillColor%3Dnone%3BspacingTop%3D0%3Bspacing%3D1%3BspacingRight%3D0%3BspacingLeft%3D2%3BabsoluteArcSize%3D0%3BresizeWidth%3D1%3BresizeHeight%3D1%3Brotation%3D0%3BimageHeight%3D24%3BimageWidth%3D24%3BstrokeWidth%3D1%3Bdashed%3D1%3BdashPattern%3D1%204%3BnoLabel%3D0%3BlabelPadding%3D0%3BmetaEdit%3D0%3BmovableLabel%3D0%3B%22%20vertex%3D%221%22%20parent%3D%222%22%3E%3CmxGeometry%20y%3D%2226%22%20width%3D%22220%22%20height%3D%2250%22%20as%3D%22geometry%22%3E%3CmxPoint%20x%3D%226%22%20y%3D%22-2%22%20as%3D%22offset%22%2F%3E%3C%2FmxGeometry%3E%3C%2FmxCell%3E%3C%2Fobject%3E%3C%2Froot%3E%3C%2FmxGraphMode&lt;/span&gt;&lt;b style=&quot;background-color: initial; color: rgb(0, 0, 0);&quot;&gt;)&lt;/b&gt;&lt;/div&gt;" id="oLIk3Z_Zjyd05N_7NpLE-15">
          <mxCell style="text;html=1;align=left;verticalAlign=middle;resizable=1;points=[];autosize=0;strokeColor=none;fillColor=none;spacingTop=0;spacing=1;spacingRight=0;spacingLeft=2;absoluteArcSize=0;resizeWidth=1;resizeHeight=1;rotation=0;imageHeight=24;imageWidth=24;strokeWidth=1;dashed=1;dashPattern=1 4;noLabel=0;labelPadding=0;metaEdit=0;movableLabel=0;" vertex="1" parent="oLIk3Z_Zjyd05N_7NpLE-13">
            <mxGeometry y="92" width="240" height="50" as="geometry">
              <mxPoint x="6" y="-2" as="offset" />
            </mxGeometry>
          </mxCell>
        </object>
        <object label="&lt;div style=&quot;font-size: 16px;&quot;&gt;&lt;font color=&quot;#000000&quot;&gt;&lt;b&gt;Name&lt;/b&gt;&lt;/font&gt;&lt;span style=&quot;color: rgba(0, 0, 0, 0); font-family: monospace; font-size: 0px; background-color: initial;&quot;&gt;%3CmxGraphModel%3E%3Croot%3E%3CmxCell%20id%3D%220%22%2F%3E%3CmxCell%20id%3D%221%22%20parent%3D%220%22%2F%3E%3Cobject%20label%3D%22%26lt%3Bdiv%26gt%3BOrganizations%26lt%3B%2Fdiv%26gt%3B%22%20placeholders%3D%221%22%20id%3D%222%22%3E%3CmxCell%20style%3D%22swimlane%3BwhiteSpace%3Dwrap%3Bhtml%3D1%3BfillColor%3D%236d8764%3BfontColor%3D%23ffffff%3BstrokeColor%3D%233A5431%3BswimlaneFillColor%3D%23A3A3A3%3B%22%20vertex%3D%221%22%20parent%3D%221%22%3E%3CmxGeometry%20x%3D%22290%22%20y%3D%22120%22%20width%3D%22230%22%20height%3D%22240%22%20as%3D%22geometry%22%2F%3E%3C%2FmxCell%3E%3C%2Fobject%3E%3Cobject%20label%3D%22%26lt%3Bdiv%20style%3D%26quot%3Bfont-size%3A%2016px%3B%26quot%3B%26gt%3B%26lt%3Bspan%20style%3D%26quot%3Bcolor%3A%20rgb(0%2C%200%2C%200)%3B%20background-color%3A%20initial%3B%26quot%3B%26gt%3B%26lt%3Bfont%20style%3D%26quot%3Bfont-size%3A%2016px%3B%26quot%3B%26gt%3B%26lt%3Bb%20style%3D%26quot%3B%26quot%3B%26gt%3BID_org%20(INT%2C%26amp%3Bnbsp%3B%26lt%3B%2Fb%26gt%3B%26lt%3B%2Ffont%26gt%3B%26lt%3B%2Fspan%26gt%3B%26lt%3B%2Fdiv%26gt%3B%26lt%3Bdiv%20style%3D%26quot%3Bfont-size%3A%2016px%3B%26quot%3B%26gt%3B%26lt%3Bspan%20style%3D%26quot%3Bcolor%3A%20rgb(0%2C%200%2C%200)%3B%20background-color%3A%20initial%3B%26quot%3B%26gt%3B%26lt%3Bfont%20style%3D%26quot%3Bfont-size%3A%2016px%3B%26quot%3B%26gt%3B%26lt%3Bb%20style%3D%26quot%3B%26quot%3B%26gt%3Bautoicremen%26lt%3B%2Fb%26gt%3B%26lt%3B%2Ffont%26gt%3B%26lt%3B%2Fspan%26gt%3B%26lt%3Bspan%20style%3D%26quot%3Bcolor%3A%20rgba(0%2C%200%2C%200%2C%200)%3B%20font-family%3A%20monospace%3B%20font-size%3A%200px%3B%20background-color%3A%20initial%3B%26quot%3B%26gt%3B%253CmxGraphModel%253E%253Croot%253E%253CmxCell%2520id%253D%25220%2522%252F%253E%253CmxCell%2520id%253D%25221%2522%2520parent%253D%25220%2522%252F%253E%253Cobject%2520label%253D%2522%2526lt%253Bdiv%2526gt%253BOrganizations%2526lt%253B%252Fdiv%2526gt%253B%2522%2520placeholders%253D%25221%2522%2520id%253D%25222%2522%253E%253CmxCell%2520style%253D%2522swimlane%253BwhiteSpace%253Dwrap%253Bhtml%253D1%253BfillColor%253D%25236d8764%253BfontColor%253D%2523ffffff%253BstrokeColor%253D%25233A5431%253BswimlaneFillColor%253D%2523A3A3A3%253B%2522%2520vertex%253D%25221%2522%2520parent%253D%25221%2522%253E%253CmxGeometry%2520x%253D%2522560%2522%2520y%253D%2522370%2522%2520width%253D%2522220%2522%2520height%253D%2522220%2522%2520as%253D%2522geometry%2522%252F%253E%253C%252FmxCell%253E%253C%252Fobject%253E%253Cobject%2520label%253D%2522%2526lt%253Bdiv%2520style%253D%2526quot%253Bfont-size%253A%252016px%253B%2526quot%253B%2526gt%253B%2526lt%253Bspan%2520style%253D%2526quot%253Bcolor%253A%2520rgb(0%252C%25200%252C%25200)%253B%2520background-color%253A%2520initial%253B%2526quot%253B%2526gt%253B%2526lt%253Bfont%2520style%253D%2526quot%253Bfont-size%253A%252016px%253B%2526quot%253B%2526gt%253B%2526lt%253Bb%2520style%253D%2526quot%253B%2526quot%253B%2526gt%253BID_org%2520(INT%252C%2526amp%253Bnbsp%253B%2526lt%253B%252Fb%2526gt%253B%2526lt%253B%252Ffont%2526gt%253B%2526lt%253B%252Fspan%2526gt%253B%2526lt%253B%252Fdiv%2526gt%253B%2526lt%253Bdiv%2520style%253D%2526quot%253Bfont-size%253A%252016px%253B%2526quot%253B%2526gt%253B%2526lt%253Bspan%2520style%253D%2526quot%253Bcolor%253A%2520rgb(0%252C%25200%252C%25200)%253B%2520background-color%253A%2520initial%253B%2526quot%253B%2526gt%253B%2526lt%253Bfont%2520style%253D%2526quot%253Bfont-size%253A%252016px%253B%2526quot%253B%2526gt%253B%2526lt%253Bb%2520style%253D%2526quot%253B%2526quot%253B%2526gt%253Bautoicrement)%2526lt%253B%252Fb%2526gt%253B%2526lt%253B%252Ffont%2526gt%253B%2526lt%253B%252Fspan%2526gt%253B%2526lt%253B%252Fdiv%2526gt%253B%2522%2520id%253D%25223%2522%253E%253CmxCell%2520style%253D%2522text%253Bhtml%253D1%253Balign%253Dleft%253BverticalAlign%253Dmiddle%253Bresizable%253D1%253Bpoints%253D%255B%255D%253Bautosize%253D0%253BstrokeColor%253Dnone%253BfillColor%253Dnone%253BspacingTop%253D0%253Bspacing%253D1%253BspacingRight%253D0%253BspacingLeft%253D2%253BabsoluteArcSize%253D0%253BresizeWidth%253D1%253BresizeHeight%253D1%253Brotation%253D0%253BimageHeight%253D24%253BimageWidth%253D24%253BstrokeWidth%253D1%253Bdashed%253D1%253BdashPattern%253D1%25204%253BnoLabel%253D0%253BlabelPadding%253D0%253BmetaEdit%253D0%253BmovableLabel%253D0%253B%2522%2520vertex%253D%25221%2522%2520parent%253D%25222%2522%253E%253CmxGeometry%2520y%253D%252226%2522%2520width%253D%2522220%2522%2520height%253D%252250%2522%2520as%253D%2522geometry%2522%253E%253CmxPoint%2520x%253D%25226%2522%2520y%253D%2522-2%2522%2520as%253D%2522offset%2522%252F%253E%253C%252FmxGeometry%253E%253C%252FmxCell%253E%253C%252Fobject%253E%253C%252Froot%253E%253C%252FmxGraphModel%253E%26lt%3B%2Fspan%26gt%3B%26lt%3Bb%20style%3D%26quot%3Bbackground-color%3A%20initial%3B%20color%3A%20rgb(0%2C%200%2C%200)%3B%26quot%3B%26gt%3Bt)%26lt%3B%2Fb%26gt%3B%26lt%3B%2Fdiv%26gt%3B%22%20id%3D%223%22%3E%3CmxCell%20style%3D%22text%3Bhtml%3D1%3Balign%3Dleft%3BverticalAlign%3Dmiddle%3Bresizable%3D1%3Bpoints%3D%5B%5D%3Bautosize%3D0%3BstrokeColor%3Dnone%3BfillColor%3Dnone%3BspacingTop%3D0%3Bspacing%3D1%3BspacingRight%3D0%3BspacingLeft%3D2%3BabsoluteArcSize%3D0%3BresizeWidth%3D1%3BresizeHeight%3D1%3Brotation%3D0%3BimageHeight%3D24%3BimageWidth%3D24%3BstrokeWidth%3D1%3Bdashed%3D1%3BdashPattern%3D1%204%3BnoLabel%3D0%3BlabelPadding%3D0%3BmetaEdit%3D0%3BmovableLabel%3D0%3B%22%20vertex%3D%221%22%20parent%3D%222%22%3E%3CmxGeometry%20y%3D%2226%22%20width%3D%22220%22%20height%3D%2250%22%20as%3D%22geometry%22%3E%3CmxPoint%20x%3D%226%22%20y%3D%22-2%22%20as%3D%22offset%22%2F%3E%3C%2FmxGeometry%3E%3C%2FmxCell%3E%3C%2Fobject%3E%3Cobject%20label%3D%22%26lt%3Bdiv%20style%3D%26quot%3Bfont-size%3A%2016px%3B%26quot%3B%26gt%3B%26lt%3Bspan%20style%3D%26quot%3Bcolor%3A%20rgb(0%2C%200%2C%200)%3B%20background-color%3A%20initial%3B%26quot%3B%26gt%3B%26lt%3Bfont%20style%3D%26quot%3Bfont-size%3A%2016px%3B%26quot%3B%26gt%3B%26lt%3Bb%20style%3D%26quot%3B%26quot%3B%26gt%3BName_org%20(TEXT%26lt%3B%2Fb%26gt%3B%26lt%3B%2Ffont%26gt%3B%26lt%3B%2Fspan%26gt%3B%26lt%3Bspan%20style%3D%26quot%3Bbackground-color%3A%20initial%3B%20color%3A%20rgba(0%2C%200%2C%200%2C%200)%3B%20font-family%3A%20monospace%3B%20font-size%3A%200px%3B%26quot%3B%26gt%3B3CmxGraphModel%253E%253Croot%253E%253CmxCell%2520id%253D%25220%2522%252F%253E%253CmxCell%2520id%253D%25221%2522%2520parent%253D%25220%2522%252F%253E%253Cobject%2520label%253D%2522%2526lt%253Bdiv%2526gt%253BOrganizations%2526lt%253B%252Fdiv%2526gt%253B%2522%2520placeholders%253D%25221%2522%2520id%253D%25222%2522%253E%253CmxCell%2520style%253D%2522swimlane%253BwhiteSpace%253Dwrap%253Bhtml%253D1%253BfillColor%253D%25236d8764%253BfontColor%253D%2523ffffff%253BstrokeColor%253D%25233A5431%253BswimlaneFillColor%253D%2523A3A3A3%253B%2522%2520vertex%253D%25221%2522%2520parent%253D%25221%2522%253E%253CmxGeometry%2520x%253D%2522560%2522%2520y%253D%2522370%2522%2520width%253D%2522220%2522%2520height%253D%2522220%2522%2520as%253D%2522geometry%2522%252F%253E%253C%252FmxCell%253E%253C%252Fobject%253E%253Cobject%2520label%253D%2522%2526lt%253Bdiv%2520style%253D%2526quot%253Bfont-size%253A%252016px%253B%2526quot%253B%2526gt%253B%2526lt%253Bspan%2520style%253D%2526quot%253Bcolor%253A%2520rgb(0%252C%25200%252C%25200)%253B%2520background-color%253A%2520initial%253B%2526quot%253B%2526gt%253B%2526lt%253Bfont%2520style%253D%2526quot%253Bfont-size%253A%252016px%253B%2526quot%253B%2526gt%253B%2526lt%253Bb%2520style%253D%2526quot%253B%2526quot%253B%2526gt%253BID_org%2520(INT%252C%2526amp%253Bnbsp%253B%2526lt%253B%252Fb%2526gt%253B%2526lt%253B%252Ffont%2526gt%253B%2526lt%253B%252Fspan%2526gt%253B%2526lt%253B%252Fdiv%2526gt%253B%2526lt%253Bdiv%2520style%253D%2526quot%253Bfont-size%253A%252016px%253B%2526quot%253B%2526gt%253B%2526lt%253Bspan%2520style%253D%2526quot%253Bcolor%253A%2520rgb(0%252C%25200%252C%25200)%253B%2520background-color%253A%2520initial%253B%2526quot%253B%2526gt%253B%2526lt%253Bfont%2520style%253D%2526quot%253Bfont-size%253A%252016px%253B%2526quot%253B%2526gt%253B%2526lt%253Bb%2520style%253D%2526quot%253B%2526quot%253B%2526gt%253Bautoicrement)%2526lt%253B%252Fb%2526gt%253B%2526lt%253B%252Ffont%2526gt%253B%2526lt%253B%252Fspan%2526gt%253B%2526lt%253B%252Fdiv%2526gt%253B%2522%2520id%253D%25223%2522%253E%253CmxCell%2520style%253D%2522text%253Bhtml%253D1%253Balign%253Dleft%253BverticalAlign%253Dmiddle%253Bresizable%253D1%253Bpoints%253D%255B%255D%253Bautosize%253D0%253BstrokeColor%253Dnone%253BfillColor%253Dnone%253BspacingTop%253D0%253Bspacing%253D1%253BspacingRight%253D0%253BspacingLeft%253D2%253BabsoluteArcSize%253D0%253BresizeWidth%253D1%253BresizeHeight%253D1%253Brotation%253D0%253BimageHeight%253D24%253BimageWidth%253D24%253BstrokeWidth%253D1%253Bdashed%253D1%253BdashPattern%253D1%25204%253BnoLabel%253D0%253BlabelPadding%253D0%253BmetaEdit%253D0%253BmovableLabel%253D0%253B%2522%2520vertex%253D%25221%2522%2520parent%253D%25222%2522%253E%253CmxGeometry%2520y%253D%252226%2522%2520width%253D%2522220%2522%2520height%253D%252250%2522%2520as%253D%2522geometry%2522%253E%253CmxPoint%2520x%253D%25226%2522%2520y%253D%2522-2%2522%2520as%253D%2522offset%2522%252F%253E%253C%252FmxGeometry%253E%253C%252FmxCell%253E%253C%252Fobject%253E%253C%252Froot%253E%253C%252FmxGraphMode%26lt%3B%2Fspan%26gt%3B%26lt%3Bb%20style%3D%26quot%3Bbackground-color%3A%20initial%3B%20color%3A%20rgb(0%2C%200%2C%200)%3B%26quot%3B%26gt%3B)%26lt%3B%2Fb%26gt%3B%26lt%3B%2Fdiv%26gt%3B%22%20id%3D%224%22%3E%3CmxCell%20style%3D%22text%3Bhtml%3D1%3Balign%3Dleft%3BverticalAlign%3Dmiddle%3Bresizable%3D1%3Bpoints%3D%5B%5D%3Bautosize%3D0%3BstrokeColor%3Dnone%3BfillColor%3Dnone%3BspacingTop%3D0%3Bspacing%3D1%3BspacingRight%3D0%3BspacingLeft%3D2%3BabsoluteArcSize%3D0%3BresizeWidth%3D1%3BresizeHeight%3D1%3Brotation%3D0%3BimageHeight%3D24%3BimageWidth%3D24%3BstrokeWidth%3D1%3Bdashed%3D1%3BdashPattern%3D1%204%3BnoLabel%3D0%3BlabelPadding%3D0%3BmetaEdit%3D0%3BmovableLabel%3D0%3B%22%20vertex%3D%221%22%20parent%3D%222%22%3E%3CmxGeometry%20y%3D%2268%22%20width%3D%22220%22%20height%3D%2250%22%20as%3D%22geometry%22%3E%3CmxPoint%20x%3D%226%22%20y%3D%22-2%22%20as%3D%22offset%22%2F%3E%3C%2FmxGeometry%3E%3C%2FmxCell%3E%3C%2Fobject%3E%3Cobject%20label%3D%22%26lt%3Bdiv%20style%3D%26quot%3Bfont-size%3A%2016px%3B%26quot%3B%26gt%3B%26lt%3Bfont%20color%3D%26quot%3B%23000000%26quot%3B%26gt%3B%26lt%3Bb%26gt%3BComment%20(TEXT)%26lt%3B%2Fb%26gt%3B%26lt%3B%2Ffont%26gt%3B%26lt%3B%2Fdiv%26gt%3B%22%20id%3D%225%22%3E%3CmxCell%20style%3D%22text%3Bhtml%3D1%3Balign%3Dleft%3BverticalAlign%3Dmiddle%3Bresizable%3D1%3Bpoints%3D%5B%5D%3Bautosize%3D0%3BstrokeColor%3Dnone%3BfillColor%3Dnone%3BspacingTop%3D0%3Bspacing%3D1%3BspacingRight%3D0%3BspacingLeft%3D2%3BabsoluteArcSize%3D0%3BresizeWidth%3D1%3BresizeHeight%3D1%3Brotation%3D0%3BimageHeight%3D24%3BimageWidth%3D24%3BstrokeWidth%3D1%3Bdashed%3D1%3BdashPattern%3D1%204%3BnoLabel%3D0%3BlabelPadding%3D0%3BmetaEdit%3D0%3BmovableLabel%3D0%3B%22%20vertex%3D%221%22%20parent%3D%222%22%3E%3CmxGeometry%20y%3D%22110%22%20width%3D%22220%22%20height%3D%2250%22%20as%3D%22geometry%22%3E%3CmxPoint%20x%3D%226%22%20y%3D%22-2%22%20as%3D%22offset%22%2F%3E%3C%2FmxGeometry%3E%3C%2FmxCell%3E%3C%2Fobject%3E%3C%2Froot%3E%3C%2FmxGraphModel%3E&lt;/span&gt;&lt;b style=&quot;color: rgb(0, 0, 0); background-color: initial;&quot;&gt;_dep (TEXT)&lt;/b&gt;&lt;/div&gt;" id="oLIk3Z_Zjyd05N_7NpLE-16">
          <mxCell style="text;html=1;align=left;verticalAlign=middle;resizable=1;points=[];autosize=0;strokeColor=none;fillColor=none;spacingTop=0;spacing=1;spacingRight=0;spacingLeft=2;absoluteArcSize=0;resizeWidth=1;resizeHeight=1;rotation=0;imageHeight=24;imageWidth=24;strokeWidth=1;dashed=1;dashPattern=1 4;noLabel=0;labelPadding=0;metaEdit=0;movableLabel=0;" vertex="1" parent="oLIk3Z_Zjyd05N_7NpLE-13">
            <mxGeometry y="150" width="240" height="50" as="geometry">
              <mxPoint x="6" y="-2" as="offset" />
            </mxGeometry>
          </mxCell>
        </object>
        <mxCell id="oLIk3Z_Zjyd05N_7NpLE-72" style="edgeStyle=orthogonalEdgeStyle;rounded=0;orthogonalLoop=1;jettySize=auto;html=1;" edge="1" parent="oLIk3Z_Zjyd05N_7NpLE-13" source="oLIk3Z_Zjyd05N_7NpLE-17" target="oLIk3Z_Zjyd05N_7NpLE-14">
          <mxGeometry relative="1" as="geometry">
            <Array as="points">
              <mxPoint x="-90" y="145" />
              <mxPoint x="-90" y="60" />
            </Array>
          </mxGeometry>
        </mxCell>
        <mxCell id="oLIk3Z_Zjyd05N_7NpLE-77" value="ВНЕШНИЙ КЛЮЧ" style="edgeLabel;html=1;align=center;verticalAlign=middle;resizable=0;points=[];" vertex="1" connectable="0" parent="oLIk3Z_Zjyd05N_7NpLE-72">
          <mxGeometry x="0.5299" y="-1" relative="1" as="geometry">
            <mxPoint x="-8" y="-1" as="offset" />
          </mxGeometry>
        </mxCell>
        <object label="&lt;div style=&quot;font-size: 16px;&quot;&gt;&lt;font color=&quot;#000000&quot;&gt;&lt;b&gt;ID_parent_dep (INT)&lt;/b&gt;&lt;/font&gt;&lt;/div&gt;" id="oLIk3Z_Zjyd05N_7NpLE-17">
          <mxCell style="text;html=1;align=left;verticalAlign=middle;resizable=1;points=[];autosize=0;strokeColor=none;fillColor=none;spacingTop=0;spacing=1;spacingRight=0;spacingLeft=2;absoluteArcSize=0;resizeWidth=1;resizeHeight=1;rotation=0;imageHeight=24;imageWidth=24;strokeWidth=1;dashed=1;dashPattern=1 4;noLabel=0;labelPadding=0;metaEdit=0;movableLabel=0;" vertex="1" parent="oLIk3Z_Zjyd05N_7NpLE-13">
            <mxGeometry y="120" width="240" height="50" as="geometry">
              <mxPoint x="6" y="-2" as="offset" />
            </mxGeometry>
          </mxCell>
        </object>
        <object label="&lt;div style=&quot;font-size: 16px;&quot;&gt;&lt;font color=&quot;#000000&quot;&gt;&lt;b&gt;Comment (TEXT)&lt;/b&gt;&lt;/font&gt;&lt;/div&gt;" id="oLIk3Z_Zjyd05N_7NpLE-18">
          <mxCell style="text;html=1;align=left;verticalAlign=middle;resizable=1;points=[];autosize=0;strokeColor=none;fillColor=none;spacingTop=0;spacing=1;spacingRight=0;spacingLeft=2;absoluteArcSize=0;resizeWidth=1;resizeHeight=1;rotation=0;imageHeight=24;imageWidth=24;strokeWidth=1;dashed=1;dashPattern=1 4;noLabel=0;labelPadding=0;metaEdit=0;movableLabel=0;" vertex="1" parent="oLIk3Z_Zjyd05N_7NpLE-13">
            <mxGeometry y="190" width="240" height="50" as="geometry">
              <mxPoint x="6" y="-2" as="offset" />
            </mxGeometry>
          </mxCell>
        </object>
        <object label="Positions" placeholders="1" id="oLIk3Z_Zjyd05N_7NpLE-19">
          <mxCell style="swimlane;whiteSpace=wrap;html=1;fillColor=#6d8764;fontColor=#ffffff;strokeColor=#3A5431;swimlaneFillColor=#A3A3A3;startSize=40;" vertex="1" parent="WIyWlLk6GJQsqaUBKTNV-1">
            <mxGeometry x="80" y="720" width="260" height="240" as="geometry" />
          </mxCell>
        </object>
        <object label="&lt;div style=&quot;font-size: 16px;&quot;&gt;&lt;span style=&quot;color: rgb(0, 0, 0); background-color: initial;&quot;&gt;&lt;font style=&quot;font-size: 16px;&quot;&gt;&lt;b style=&quot;&quot;&gt;ID_pos (INT,&amp;nbsp;&lt;/b&gt;&lt;/font&gt;&lt;/span&gt;&lt;/div&gt;&lt;div style=&quot;font-size: 16px;&quot;&gt;&lt;span style=&quot;color: rgb(0, 0, 0); background-color: initial;&quot;&gt;&lt;font style=&quot;font-size: 16px;&quot;&gt;&lt;b style=&quot;&quot;&gt;autoincremen&lt;/b&gt;&lt;/font&gt;&lt;/span&gt;&lt;span style=&quot;color: rgba(0, 0, 0, 0); font-family: monospace; font-size: 0px; background-color: initial;&quot;&gt;%3CmxGraphModel%3E%3Croot%3E%3CmxCell%20id%3D%220%22%2F%3E%3CmxCell%20id%3D%221%22%20parent%3D%220%22%2F%3E%3Cobject%20label%3D%22%26lt%3Bdiv%26gt%3BOrganizations%26lt%3B%2Fdiv%26gt%3B%22%20placeholders%3D%221%22%20id%3D%222%22%3E%3CmxCell%20style%3D%22swimlane%3BwhiteSpace%3Dwrap%3Bhtml%3D1%3BfillColor%3D%236d8764%3BfontColor%3D%23ffffff%3BstrokeColor%3D%233A5431%3BswimlaneFillColor%3D%23A3A3A3%3B%22%20vertex%3D%221%22%20parent%3D%221%22%3E%3CmxGeometry%20x%3D%22560%22%20y%3D%22370%22%20width%3D%22220%22%20height%3D%22220%22%20as%3D%22geometry%22%2F%3E%3C%2FmxCell%3E%3C%2Fobject%3E%3Cobject%20label%3D%22%26lt%3Bdiv%20style%3D%26quot%3Bfont-size%3A%2016px%3B%26quot%3B%26gt%3B%26lt%3Bspan%20style%3D%26quot%3Bcolor%3A%20rgb(0%2C%200%2C%200)%3B%20background-color%3A%20initial%3B%26quot%3B%26gt%3B%26lt%3Bfont%20style%3D%26quot%3Bfont-size%3A%2016px%3B%26quot%3B%26gt%3B%26lt%3Bb%20style%3D%26quot%3B%26quot%3B%26gt%3BID_org%20(INT%2C%26amp%3Bnbsp%3B%26lt%3B%2Fb%26gt%3B%26lt%3B%2Ffont%26gt%3B%26lt%3B%2Fspan%26gt%3B%26lt%3B%2Fdiv%26gt%3B%26lt%3Bdiv%20style%3D%26quot%3Bfont-size%3A%2016px%3B%26quot%3B%26gt%3B%26lt%3Bspan%20style%3D%26quot%3Bcolor%3A%20rgb(0%2C%200%2C%200)%3B%20background-color%3A%20initial%3B%26quot%3B%26gt%3B%26lt%3Bfont%20style%3D%26quot%3Bfont-size%3A%2016px%3B%26quot%3B%26gt%3B%26lt%3Bb%20style%3D%26quot%3B%26quot%3B%26gt%3Bautoicrement)%26lt%3B%2Fb%26gt%3B%26lt%3B%2Ffont%26gt%3B%26lt%3B%2Fspan%26gt%3B%26lt%3B%2Fdiv%26gt%3B%22%20id%3D%223%22%3E%3CmxCell%20style%3D%22text%3Bhtml%3D1%3Balign%3Dleft%3BverticalAlign%3Dmiddle%3Bresizable%3D1%3Bpoints%3D%5B%5D%3Bautosize%3D0%3BstrokeColor%3Dnone%3BfillColor%3Dnone%3BspacingTop%3D0%3Bspacing%3D1%3BspacingRight%3D0%3BspacingLeft%3D2%3BabsoluteArcSize%3D0%3BresizeWidth%3D1%3BresizeHeight%3D1%3Brotation%3D0%3BimageHeight%3D24%3BimageWidth%3D24%3BstrokeWidth%3D1%3Bdashed%3D1%3BdashPattern%3D1%204%3BnoLabel%3D0%3BlabelPadding%3D0%3BmetaEdit%3D0%3BmovableLabel%3D0%3B%22%20vertex%3D%221%22%20parent%3D%222%22%3E%3CmxGeometry%20y%3D%2226%22%20width%3D%22220%22%20height%3D%2250%22%20as%3D%22geometry%22%3E%3CmxPoint%20x%3D%226%22%20y%3D%22-2%22%20as%3D%22offset%22%2F%3E%3C%2FmxGeometry%3E%3C%2FmxCell%3E%3C%2Fobject%3E%3C%2Froot%3E%3C%2FmxGraphModel%3E&lt;/span&gt;&lt;b style=&quot;background-color: initial; color: rgb(0, 0, 0);&quot;&gt;t)&lt;/b&gt;&lt;/div&gt;" id="oLIk3Z_Zjyd05N_7NpLE-20">
          <mxCell style="text;html=1;align=left;verticalAlign=middle;resizable=1;points=[];autosize=0;strokeColor=none;fillColor=none;spacingTop=0;spacing=1;spacingRight=0;spacingLeft=2;absoluteArcSize=0;resizeWidth=1;resizeHeight=1;rotation=0;imageHeight=24;imageWidth=24;strokeWidth=1;dashed=1;dashPattern=1 4;noLabel=0;labelPadding=0;metaEdit=0;movableLabel=0;" vertex="1" parent="oLIk3Z_Zjyd05N_7NpLE-19">
            <mxGeometry y="50" width="250" height="50" as="geometry">
              <mxPoint x="6" y="-2" as="offset" />
            </mxGeometry>
          </mxCell>
        </object>
        <object label="&lt;div style=&quot;font-size: 16px;&quot;&gt;&lt;span style=&quot;color: rgb(0, 0, 0); background-color: initial;&quot;&gt;&lt;font style=&quot;font-size: 16px;&quot;&gt;&lt;b style=&quot;&quot;&gt;Name_pos (TEXT&lt;/b&gt;&lt;/font&gt;&lt;/span&gt;&lt;span style=&quot;background-color: initial; color: rgba(0, 0, 0, 0); font-family: monospace; font-size: 0px;&quot;&gt;3CmxGraphModel%3E%3Croot%3E%3CmxCell%20id%3D%220%22%2F%3E%3CmxCell%20id%3D%221%22%20parent%3D%220%22%2F%3E%3Cobject%20label%3D%22%26lt%3Bdiv%26gt%3BOrganizations%26lt%3B%2Fdiv%26gt%3B%22%20placeholders%3D%221%22%20id%3D%222%22%3E%3CmxCell%20style%3D%22swimlane%3BwhiteSpace%3Dwrap%3Bhtml%3D1%3BfillColor%3D%236d8764%3BfontColor%3D%23ffffff%3BstrokeColor%3D%233A5431%3BswimlaneFillColor%3D%23A3A3A3%3B%22%20vertex%3D%221%22%20parent%3D%221%22%3E%3CmxGeometry%20x%3D%22560%22%20y%3D%22370%22%20width%3D%22220%22%20height%3D%22220%22%20as%3D%22geometry%22%2F%3E%3C%2FmxCell%3E%3C%2Fobject%3E%3Cobject%20label%3D%22%26lt%3Bdiv%20style%3D%26quot%3Bfont-size%3A%2016px%3B%26quot%3B%26gt%3B%26lt%3Bspan%20style%3D%26quot%3Bcolor%3A%20rgb(0%2C%200%2C%200)%3B%20background-color%3A%20initial%3B%26quot%3B%26gt%3B%26lt%3Bfont%20style%3D%26quot%3Bfont-size%3A%2016px%3B%26quot%3B%26gt%3B%26lt%3Bb%20style%3D%26quot%3B%26quot%3B%26gt%3BID_org%20(INT%2C%26amp%3Bnbsp%3B%26lt%3B%2Fb%26gt%3B%26lt%3B%2Ffont%26gt%3B%26lt%3B%2Fspan%26gt%3B%26lt%3B%2Fdiv%26gt%3B%26lt%3Bdiv%20style%3D%26quot%3Bfont-size%3A%2016px%3B%26quot%3B%26gt%3B%26lt%3Bspan%20style%3D%26quot%3Bcolor%3A%20rgb(0%2C%200%2C%200)%3B%20background-color%3A%20initial%3B%26quot%3B%26gt%3B%26lt%3Bfont%20style%3D%26quot%3Bfont-size%3A%2016px%3B%26quot%3B%26gt%3B%26lt%3Bb%20style%3D%26quot%3B%26quot%3B%26gt%3Bautoicrement)%26lt%3B%2Fb%26gt%3B%26lt%3B%2Ffont%26gt%3B%26lt%3B%2Fspan%26gt%3B%26lt%3B%2Fdiv%26gt%3B%22%20id%3D%223%22%3E%3CmxCell%20style%3D%22text%3Bhtml%3D1%3Balign%3Dleft%3BverticalAlign%3Dmiddle%3Bresizable%3D1%3Bpoints%3D%5B%5D%3Bautosize%3D0%3BstrokeColor%3Dnone%3BfillColor%3Dnone%3BspacingTop%3D0%3Bspacing%3D1%3BspacingRight%3D0%3BspacingLeft%3D2%3BabsoluteArcSize%3D0%3BresizeWidth%3D1%3BresizeHeight%3D1%3Brotation%3D0%3BimageHeight%3D24%3BimageWidth%3D24%3BstrokeWidth%3D1%3Bdashed%3D1%3BdashPattern%3D1%204%3BnoLabel%3D0%3BlabelPadding%3D0%3BmetaEdit%3D0%3BmovableLabel%3D0%3B%22%20vertex%3D%221%22%20parent%3D%222%22%3E%3CmxGeometry%20y%3D%2226%22%20width%3D%22220%22%20height%3D%2250%22%20as%3D%22geometry%22%3E%3CmxPoint%20x%3D%226%22%20y%3D%22-2%22%20as%3D%22offset%22%2F%3E%3C%2FmxGeometry%3E%3C%2FmxCell%3E%3C%2Fobject%3E%3C%2Froot%3E%3C%2FmxGraphMode&lt;/span&gt;&lt;b style=&quot;background-color: initial; color: rgb(0, 0, 0);&quot;&gt;)&lt;/b&gt;&lt;/div&gt;" id="oLIk3Z_Zjyd05N_7NpLE-21">
          <mxCell style="text;html=1;align=left;verticalAlign=middle;resizable=1;points=[];autosize=0;strokeColor=none;fillColor=none;spacingTop=0;spacing=1;spacingRight=0;spacingLeft=2;absoluteArcSize=0;resizeWidth=1;resizeHeight=1;rotation=0;imageHeight=24;imageWidth=24;strokeWidth=1;dashed=1;dashPattern=1 4;noLabel=0;labelPadding=0;metaEdit=0;movableLabel=0;" vertex="1" parent="oLIk3Z_Zjyd05N_7NpLE-19">
            <mxGeometry y="130" width="250" height="50" as="geometry">
              <mxPoint x="6" y="-2" as="offset" />
            </mxGeometry>
          </mxCell>
        </object>
        <object label="&lt;div style=&quot;font-size: 16px;&quot;&gt;&lt;font color=&quot;#000000&quot;&gt;&lt;b&gt;ID_dep (INT)&lt;/b&gt;&lt;/font&gt;&lt;/div&gt;" id="oLIk3Z_Zjyd05N_7NpLE-22">
          <mxCell style="text;html=1;align=left;verticalAlign=middle;resizable=1;points=[];autosize=0;strokeColor=none;fillColor=none;spacingTop=0;spacing=1;spacingRight=0;spacingLeft=2;absoluteArcSize=0;resizeWidth=1;resizeHeight=1;rotation=0;imageHeight=24;imageWidth=24;strokeWidth=1;dashed=1;dashPattern=1 4;noLabel=0;labelPadding=0;metaEdit=0;movableLabel=0;" vertex="1" parent="oLIk3Z_Zjyd05N_7NpLE-19">
            <mxGeometry y="95" width="250" height="50" as="geometry">
              <mxPoint x="6" y="-2" as="offset" />
            </mxGeometry>
          </mxCell>
        </object>
        <object label="Employees" placeholders="1" id="oLIk3Z_Zjyd05N_7NpLE-23">
          <mxCell style="swimlane;whiteSpace=wrap;html=1;fillColor=#6d8764;fontColor=#ffffff;strokeColor=#3A5431;swimlaneFillColor=#A3A3A3;startSize=40;" vertex="1" parent="WIyWlLk6GJQsqaUBKTNV-1">
            <mxGeometry x="530" y="110" width="260" height="450" as="geometry" />
          </mxCell>
        </object>
        <object label="&lt;div style=&quot;font-size: 16px;&quot;&gt;&lt;font color=&quot;#000000&quot;&gt;&lt;b&gt;ID_employee (INT,&amp;nbsp;&lt;/b&gt;&lt;/font&gt;&lt;/div&gt;&lt;div style=&quot;font-size: 16px;&quot;&gt;&lt;font color=&quot;#000000&quot;&gt;&lt;b&gt;autoincrement)&lt;/b&gt;&lt;/font&gt;&lt;/div&gt;" id="oLIk3Z_Zjyd05N_7NpLE-24">
          <mxCell style="text;html=1;align=left;verticalAlign=middle;resizable=1;points=[];autosize=0;strokeColor=none;fillColor=none;spacingTop=0;spacing=1;spacingRight=0;spacingLeft=2;absoluteArcSize=0;resizeWidth=1;resizeHeight=1;rotation=0;imageHeight=24;imageWidth=24;strokeWidth=1;dashed=1;dashPattern=1 4;noLabel=0;labelPadding=0;metaEdit=0;movableLabel=0;" vertex="1" parent="oLIk3Z_Zjyd05N_7NpLE-23">
            <mxGeometry y="50" width="250" height="50" as="geometry">
              <mxPoint x="6" y="-2" as="offset" />
            </mxGeometry>
          </mxCell>
        </object>
        <object label="&lt;div style=&quot;font-size: 16px;&quot;&gt;&lt;font color=&quot;#000000&quot;&gt;&lt;b&gt;ID_scan (INT)&lt;/b&gt;&lt;/font&gt;&lt;/div&gt;" id="oLIk3Z_Zjyd05N_7NpLE-25">
          <mxCell style="text;html=1;align=left;verticalAlign=middle;resizable=1;points=[];autosize=0;strokeColor=none;fillColor=none;spacingTop=0;spacing=1;spacingRight=0;spacingLeft=2;absoluteArcSize=0;resizeWidth=1;resizeHeight=1;rotation=0;imageHeight=24;imageWidth=24;strokeWidth=1;dashed=1;dashPattern=1 4;noLabel=0;labelPadding=0;metaEdit=0;movableLabel=0;" vertex="1" parent="oLIk3Z_Zjyd05N_7NpLE-23">
            <mxGeometry y="130" width="250" height="50" as="geometry">
              <mxPoint x="6" y="-2" as="offset" />
            </mxGeometry>
          </mxCell>
        </object>
        <object label="&lt;div style=&quot;font-size: 16px;&quot;&gt;&lt;font color=&quot;#000000&quot;&gt;&lt;b&gt;ID_address (INT)&lt;/b&gt;&lt;/font&gt;&lt;/div&gt;" id="oLIk3Z_Zjyd05N_7NpLE-26">
          <mxCell style="text;html=1;align=left;verticalAlign=middle;resizable=1;points=[];autosize=0;strokeColor=none;fillColor=none;spacingTop=0;spacing=1;spacingRight=0;spacingLeft=2;absoluteArcSize=0;resizeWidth=1;resizeHeight=1;rotation=0;imageHeight=24;imageWidth=24;strokeWidth=1;dashed=1;dashPattern=1 4;noLabel=0;labelPadding=0;metaEdit=0;movableLabel=0;" vertex="1" parent="oLIk3Z_Zjyd05N_7NpLE-23">
            <mxGeometry y="95" width="250" height="50" as="geometry">
              <mxPoint x="6" y="-2" as="offset" />
            </mxGeometry>
          </mxCell>
        </object>
        <object label="&lt;div style=&quot;font-size: 16px;&quot;&gt;&lt;font color=&quot;#000000&quot;&gt;&lt;b&gt;Last_name (TEXT)&lt;/b&gt;&lt;/font&gt;&lt;/div&gt;" id="oLIk3Z_Zjyd05N_7NpLE-27">
          <mxCell style="text;html=1;align=left;verticalAlign=middle;resizable=1;points=[];autosize=0;strokeColor=none;fillColor=none;spacingTop=0;spacing=1;spacingRight=0;spacingLeft=2;absoluteArcSize=0;resizeWidth=1;resizeHeight=1;rotation=0;imageHeight=24;imageWidth=24;strokeWidth=1;dashed=1;dashPattern=1 4;noLabel=0;labelPadding=0;metaEdit=0;movableLabel=0;" vertex="1" parent="oLIk3Z_Zjyd05N_7NpLE-23">
            <mxGeometry y="160" width="250" height="50" as="geometry">
              <mxPoint x="6" y="-2" as="offset" />
            </mxGeometry>
          </mxCell>
        </object>
        <object label="&lt;div style=&quot;font-size: 16px;&quot;&gt;&lt;font color=&quot;#000000&quot;&gt;&lt;b&gt;First_name (TEXT)&lt;/b&gt;&lt;/font&gt;&lt;/div&gt;" id="oLIk3Z_Zjyd05N_7NpLE-28">
          <mxCell style="text;html=1;align=left;verticalAlign=middle;resizable=1;points=[];autosize=0;strokeColor=none;fillColor=none;spacingTop=0;spacing=1;spacingRight=0;spacingLeft=2;absoluteArcSize=0;resizeWidth=1;resizeHeight=1;rotation=0;imageHeight=24;imageWidth=24;strokeWidth=1;dashed=1;dashPattern=1 4;noLabel=0;labelPadding=0;metaEdit=0;movableLabel=0;" vertex="1" parent="oLIk3Z_Zjyd05N_7NpLE-23">
            <mxGeometry y="190" width="250" height="50" as="geometry">
              <mxPoint x="6" y="-2" as="offset" />
            </mxGeometry>
          </mxCell>
        </object>
        <object label="&lt;div style=&quot;font-size: 16px;&quot;&gt;&lt;font color=&quot;#000000&quot;&gt;&lt;b&gt;Middle_name (TEXT)&lt;/b&gt;&lt;/font&gt;&lt;/div&gt;" id="oLIk3Z_Zjyd05N_7NpLE-29">
          <mxCell style="text;html=1;align=left;verticalAlign=middle;resizable=1;points=[];autosize=0;strokeColor=none;fillColor=none;spacingTop=0;spacing=1;spacingRight=0;spacingLeft=2;absoluteArcSize=0;resizeWidth=1;resizeHeight=1;rotation=0;imageHeight=24;imageWidth=24;strokeWidth=1;dashed=1;dashPattern=1 4;noLabel=0;labelPadding=0;metaEdit=0;movableLabel=0;" vertex="1" parent="oLIk3Z_Zjyd05N_7NpLE-23">
            <mxGeometry y="220" width="250" height="50" as="geometry">
              <mxPoint x="6" y="-2" as="offset" />
            </mxGeometry>
          </mxCell>
        </object>
        <object label="&lt;div style=&quot;font-size: 16px;&quot;&gt;&lt;font color=&quot;#000000&quot;&gt;&lt;b&gt;Birth_date (DATE)&lt;/b&gt;&lt;/font&gt;&lt;/div&gt;" id="oLIk3Z_Zjyd05N_7NpLE-30">
          <mxCell style="text;html=1;align=left;verticalAlign=middle;resizable=1;points=[];autosize=0;strokeColor=none;fillColor=none;spacingTop=0;spacing=1;spacingRight=0;spacingLeft=2;absoluteArcSize=0;resizeWidth=1;resizeHeight=1;rotation=0;imageHeight=24;imageWidth=24;strokeWidth=1;dashed=1;dashPattern=1 4;noLabel=0;labelPadding=0;metaEdit=0;movableLabel=0;" vertex="1" parent="oLIk3Z_Zjyd05N_7NpLE-23">
            <mxGeometry y="250" width="250" height="50" as="geometry">
              <mxPoint x="6" y="-2" as="offset" />
            </mxGeometry>
          </mxCell>
        </object>
        <object label="&lt;div style=&quot;font-size: 16px;&quot;&gt;&lt;font color=&quot;#000000&quot;&gt;&lt;b&gt;Passport_series (VARCHAR)&lt;/b&gt;&lt;/font&gt;&lt;/div&gt;" id="oLIk3Z_Zjyd05N_7NpLE-31">
          <mxCell style="text;html=1;align=left;verticalAlign=middle;resizable=1;points=[];autosize=0;strokeColor=none;fillColor=none;spacingTop=0;spacing=1;spacingRight=0;spacingLeft=2;absoluteArcSize=0;resizeWidth=1;resizeHeight=1;rotation=0;imageHeight=24;imageWidth=24;strokeWidth=1;dashed=1;dashPattern=1 4;noLabel=0;labelPadding=0;metaEdit=0;movableLabel=0;" vertex="1" parent="oLIk3Z_Zjyd05N_7NpLE-23">
            <mxGeometry y="280" width="250" height="50" as="geometry">
              <mxPoint x="6" y="-2" as="offset" />
            </mxGeometry>
          </mxCell>
        </object>
        <object label="&lt;div style=&quot;font-size: 16px;&quot;&gt;&lt;font color=&quot;#000000&quot;&gt;&lt;b&gt;Passport_number (VARCHAR)&lt;/b&gt;&lt;/font&gt;&lt;/div&gt;" id="oLIk3Z_Zjyd05N_7NpLE-32">
          <mxCell style="text;html=1;align=left;verticalAlign=middle;resizable=1;points=[];autosize=0;strokeColor=none;fillColor=none;spacingTop=0;spacing=1;spacingRight=0;spacingLeft=2;absoluteArcSize=0;resizeWidth=1;resizeHeight=1;rotation=0;imageHeight=24;imageWidth=24;strokeWidth=1;dashed=1;dashPattern=1 4;noLabel=0;labelPadding=0;metaEdit=0;movableLabel=0;" vertex="1" parent="oLIk3Z_Zjyd05N_7NpLE-23">
            <mxGeometry y="310" width="250" height="50" as="geometry">
              <mxPoint x="6" y="-2" as="offset" />
            </mxGeometry>
          </mxCell>
        </object>
        <object label="&lt;div style=&quot;font-size: 16px;&quot;&gt;&lt;font color=&quot;#000000&quot;&gt;&lt;b&gt;Issue_date (DATE)&lt;/b&gt;&lt;/font&gt;&lt;/div&gt;" id="oLIk3Z_Zjyd05N_7NpLE-34">
          <mxCell style="text;html=1;align=left;verticalAlign=middle;resizable=1;points=[];autosize=0;strokeColor=none;fillColor=none;spacingTop=0;spacing=1;spacingRight=0;spacingLeft=2;absoluteArcSize=0;resizeWidth=1;resizeHeight=1;rotation=0;imageHeight=24;imageWidth=24;strokeWidth=1;dashed=1;dashPattern=1 4;noLabel=0;labelPadding=0;metaEdit=0;movableLabel=0;" vertex="1" parent="oLIk3Z_Zjyd05N_7NpLE-23">
            <mxGeometry y="340" width="250" height="50" as="geometry">
              <mxPoint x="6" y="-2" as="offset" />
            </mxGeometry>
          </mxCell>
        </object>
        <object label="&lt;div style=&quot;font-size: 16px;&quot;&gt;&lt;font color=&quot;#000000&quot;&gt;&lt;b&gt;Subdivision_code (VARCHAR)&lt;/b&gt;&lt;/font&gt;&lt;/div&gt;" id="oLIk3Z_Zjyd05N_7NpLE-35">
          <mxCell style="text;html=1;align=left;verticalAlign=middle;resizable=1;points=[];autosize=0;strokeColor=none;fillColor=none;spacingTop=0;spacing=1;spacingRight=0;spacingLeft=2;absoluteArcSize=0;resizeWidth=1;resizeHeight=1;rotation=0;imageHeight=24;imageWidth=24;strokeWidth=1;dashed=1;dashPattern=1 4;noLabel=0;labelPadding=0;metaEdit=0;movableLabel=0;" vertex="1" parent="oLIk3Z_Zjyd05N_7NpLE-23">
            <mxGeometry y="370" width="250" height="50" as="geometry">
              <mxPoint x="6" y="-2" as="offset" />
            </mxGeometry>
          </mxCell>
        </object>
        <object label="&lt;div style=&quot;font-size: 16px;&quot;&gt;&lt;font color=&quot;#000000&quot;&gt;&lt;b&gt;Issued_by (TEXT)&lt;/b&gt;&lt;/font&gt;&lt;/div&gt;" id="oLIk3Z_Zjyd05N_7NpLE-36">
          <mxCell style="text;html=1;align=left;verticalAlign=middle;resizable=1;points=[];autosize=0;strokeColor=none;fillColor=none;spacingTop=0;spacing=1;spacingRight=0;spacingLeft=2;absoluteArcSize=0;resizeWidth=1;resizeHeight=1;rotation=0;imageHeight=24;imageWidth=24;strokeWidth=1;dashed=1;dashPattern=1 4;noLabel=0;labelPadding=0;metaEdit=0;movableLabel=0;" vertex="1" parent="oLIk3Z_Zjyd05N_7NpLE-23">
            <mxGeometry y="400" width="250" height="50" as="geometry">
              <mxPoint x="6" y="-2" as="offset" />
            </mxGeometry>
          </mxCell>
        </object>
        <object label="Addresses" placeholders="1" id="oLIk3Z_Zjyd05N_7NpLE-37">
          <mxCell style="swimlane;whiteSpace=wrap;html=1;fillColor=#6d8764;fontColor=#ffffff;strokeColor=#3A5431;swimlaneFillColor=#A3A3A3;startSize=40;" vertex="1" parent="WIyWlLk6GJQsqaUBKTNV-1">
            <mxGeometry x="920" y="110" width="260" height="320" as="geometry" />
          </mxCell>
        </object>
        <object label="&lt;div style=&quot;font-size: 16px;&quot;&gt;&lt;font color=&quot;#000000&quot;&gt;&lt;b&gt;ID_address (INT,&amp;nbsp;&lt;/b&gt;&lt;/font&gt;&lt;/div&gt;&lt;div style=&quot;font-size: 16px;&quot;&gt;&lt;font color=&quot;#000000&quot;&gt;&lt;b&gt;autoincrement)&lt;/b&gt;&lt;/font&gt;&lt;/div&gt;" id="oLIk3Z_Zjyd05N_7NpLE-38">
          <mxCell style="text;html=1;align=left;verticalAlign=middle;resizable=1;points=[];autosize=0;strokeColor=none;fillColor=none;spacingTop=0;spacing=1;spacingRight=0;spacingLeft=2;absoluteArcSize=0;resizeWidth=1;resizeHeight=1;rotation=0;imageHeight=24;imageWidth=24;strokeWidth=1;dashed=1;dashPattern=1 4;noLabel=0;labelPadding=0;metaEdit=0;movableLabel=0;" vertex="1" parent="oLIk3Z_Zjyd05N_7NpLE-37">
            <mxGeometry y="50" width="250" height="50" as="geometry">
              <mxPoint x="6" y="-2" as="offset" />
            </mxGeometry>
          </mxCell>
        </object>
        <object label="&lt;div style=&quot;font-size: 16px;&quot;&gt;&lt;font color=&quot;#000000&quot;&gt;&lt;b&gt;City (TEXT)&lt;/b&gt;&lt;/font&gt;&lt;/div&gt;" id="oLIk3Z_Zjyd05N_7NpLE-39">
          <mxCell style="text;html=1;align=left;verticalAlign=middle;resizable=1;points=[];autosize=0;strokeColor=none;fillColor=none;spacingTop=0;spacing=1;spacingRight=0;spacingLeft=2;absoluteArcSize=0;resizeWidth=1;resizeHeight=1;rotation=0;imageHeight=24;imageWidth=24;strokeWidth=1;dashed=1;dashPattern=1 4;noLabel=0;labelPadding=0;metaEdit=0;movableLabel=0;" vertex="1" parent="oLIk3Z_Zjyd05N_7NpLE-37">
            <mxGeometry y="130" width="250" height="50" as="geometry">
              <mxPoint x="6" y="-2" as="offset" />
            </mxGeometry>
          </mxCell>
        </object>
        <object label="&lt;div style=&quot;font-size: 16px;&quot;&gt;&lt;font color=&quot;#000000&quot;&gt;&lt;b&gt;Region (TEXT)&lt;/b&gt;&lt;/font&gt;&lt;/div&gt;" id="oLIk3Z_Zjyd05N_7NpLE-40">
          <mxCell style="text;html=1;align=left;verticalAlign=middle;resizable=1;points=[];autosize=0;strokeColor=none;fillColor=none;spacingTop=0;spacing=1;spacingRight=0;spacingLeft=2;absoluteArcSize=0;resizeWidth=1;resizeHeight=1;rotation=0;imageHeight=24;imageWidth=24;strokeWidth=1;dashed=1;dashPattern=1 4;noLabel=0;labelPadding=0;metaEdit=0;movableLabel=0;" vertex="1" parent="oLIk3Z_Zjyd05N_7NpLE-37">
            <mxGeometry y="95" width="250" height="50" as="geometry">
              <mxPoint x="6" y="-2" as="offset" />
            </mxGeometry>
          </mxCell>
        </object>
        <object label="&lt;div style=&quot;font-size: 16px;&quot;&gt;&lt;font color=&quot;#000000&quot;&gt;&lt;b&gt;Street&lt;/b&gt;&lt;/font&gt;&lt;span style=&quot;color: rgba(0, 0, 0, 0); font-family: monospace; font-size: 0px; background-color: initial;&quot;&gt;%3CmxGraphModel%3E%3Croot%3E%3CmxCell%20id%3D%220%22%2F%3E%3CmxCell%20id%3D%221%22%20parent%3D%220%22%2F%3E%3Cobject%20label%3D%22%26lt%3Bdiv%20style%3D%26quot%3Bfont-size%3A%2016px%3B%26quot%3B%26gt%3B%26lt%3Bfont%20color%3D%26quot%3B%23000000%26quot%3B%26gt%3B%26lt%3Bb%26gt%3BCity%20(TEXT)%26lt%3B%2Fb%26gt%3B%26lt%3B%2Ffont%26gt%3B%26lt%3B%2Fdiv%26gt%3B%22%20id%3D%222%22%3E%3CmxCell%20style%3D%22text%3Bhtml%3D1%3Balign%3Dleft%3BverticalAlign%3Dmiddle%3Bresizable%3D1%3Bpoints%3D%5B%5D%3Bautosize%3D0%3BstrokeColor%3Dnone%3BfillColor%3Dnone%3BspacingTop%3D0%3Bspacing%3D1%3BspacingRight%3D0%3BspacingLeft%3D2%3BabsoluteArcSize%3D0%3BresizeWidth%3D1%3BresizeHeight%3D1%3Brotation%3D0%3BimageHeight%3D24%3BimageWidth%3D24%3BstrokeWidth%3D1%3Bdashed%3D1%3BdashPattern%3D1%204%3BnoLabel%3D0%3BlabelPadding%3D0%3BmetaEdit%3D0%3BmovableLabel%3D0%3B%22%20vertex%3D%221%22%20parent%3D%221%22%3E%3CmxGeometry%20x%3D%22920%22%20y%3D%22250%22%20width%3D%22250%22%20height%3D%2250%22%20as%3D%22geometry%22%3E%3CmxPoint%20x%3D%226%22%20y%3D%22-2%22%20as%3D%22offset%22%2F%3E%3C%2FmxGeometry%3E%3C%2FmxCell%3E%3C%2Fobject%3E%3C%2Froot%3E%3C%2FmxGraphModel%3E&lt;/span&gt;&lt;b style=&quot;color: rgb(0, 0, 0); background-color: initial;&quot;&gt;&amp;nbsp;(TEXT)&lt;/b&gt;&lt;/div&gt;" id="oLIk3Z_Zjyd05N_7NpLE-41">
          <mxCell style="text;html=1;align=left;verticalAlign=middle;resizable=1;points=[];autosize=0;strokeColor=none;fillColor=none;spacingTop=0;spacing=1;spacingRight=0;spacingLeft=2;absoluteArcSize=0;resizeWidth=1;resizeHeight=1;rotation=0;imageHeight=24;imageWidth=24;strokeWidth=1;dashed=1;dashPattern=1 4;noLabel=0;labelPadding=0;metaEdit=0;movableLabel=0;" vertex="1" parent="oLIk3Z_Zjyd05N_7NpLE-37">
            <mxGeometry y="160" width="250" height="50" as="geometry">
              <mxPoint x="6" y="-2" as="offset" />
            </mxGeometry>
          </mxCell>
        </object>
        <object label="&lt;div style=&quot;font-size: 16px;&quot;&gt;&lt;font color=&quot;#000000&quot;&gt;&lt;b&gt;House (INT)&lt;/b&gt;&lt;/font&gt;&lt;/div&gt;" id="oLIk3Z_Zjyd05N_7NpLE-42">
          <mxCell style="text;html=1;align=left;verticalAlign=middle;resizable=1;points=[];autosize=0;strokeColor=none;fillColor=none;spacingTop=0;spacing=1;spacingRight=0;spacingLeft=2;absoluteArcSize=0;resizeWidth=1;resizeHeight=1;rotation=0;imageHeight=24;imageWidth=24;strokeWidth=1;dashed=1;dashPattern=1 4;noLabel=0;labelPadding=0;metaEdit=0;movableLabel=0;" vertex="1" parent="oLIk3Z_Zjyd05N_7NpLE-37">
            <mxGeometry y="190" width="250" height="50" as="geometry">
              <mxPoint x="6" y="-2" as="offset" />
            </mxGeometry>
          </mxCell>
        </object>
        <object label="&lt;div style=&quot;font-size: 16px;&quot;&gt;&lt;font color=&quot;#000000&quot;&gt;&lt;b&gt;Building (INT)&lt;/b&gt;&lt;/font&gt;&lt;/div&gt;" id="oLIk3Z_Zjyd05N_7NpLE-43">
          <mxCell style="text;html=1;align=left;verticalAlign=middle;resizable=1;points=[];autosize=0;strokeColor=none;fillColor=none;spacingTop=0;spacing=1;spacingRight=0;spacingLeft=2;absoluteArcSize=0;resizeWidth=1;resizeHeight=1;rotation=0;imageHeight=24;imageWidth=24;strokeWidth=1;dashed=1;dashPattern=1 4;noLabel=0;labelPadding=0;metaEdit=0;movableLabel=0;" vertex="1" parent="oLIk3Z_Zjyd05N_7NpLE-37">
            <mxGeometry y="220" width="250" height="50" as="geometry">
              <mxPoint x="6" y="-2" as="offset" />
            </mxGeometry>
          </mxCell>
        </object>
        <object label="&lt;div style=&quot;font-size: 16px;&quot;&gt;&lt;font color=&quot;#000000&quot;&gt;&lt;b&gt;Apartment (INT)&lt;/b&gt;&lt;/font&gt;&lt;/div&gt;" id="oLIk3Z_Zjyd05N_7NpLE-44">
          <mxCell style="text;html=1;align=left;verticalAlign=middle;resizable=1;points=[];autosize=0;strokeColor=none;fillColor=none;spacingTop=0;spacing=1;spacingRight=0;spacingLeft=2;absoluteArcSize=0;resizeWidth=1;resizeHeight=1;rotation=0;imageHeight=24;imageWidth=24;strokeWidth=1;dashed=1;dashPattern=1 4;noLabel=0;labelPadding=0;metaEdit=0;movableLabel=0;" vertex="1" parent="oLIk3Z_Zjyd05N_7NpLE-37">
            <mxGeometry y="250" width="250" height="50" as="geometry">
              <mxPoint x="6" y="-2" as="offset" />
            </mxGeometry>
          </mxCell>
        </object>
        <object label="Files" placeholders="1" id="oLIk3Z_Zjyd05N_7NpLE-45">
          <mxCell style="swimlane;whiteSpace=wrap;html=1;fillColor=#6d8764;fontColor=#ffffff;strokeColor=#3A5431;swimlaneFillColor=#A3A3A3;startSize=40;" vertex="1" parent="WIyWlLk6GJQsqaUBKTNV-1">
            <mxGeometry x="920" y="480" width="260" height="240" as="geometry" />
          </mxCell>
        </object>
        <object label="&lt;div style=&quot;font-size: 16px;&quot;&gt;&lt;font color=&quot;#000000&quot;&gt;&lt;b&gt;ID_scan (INT,&amp;nbsp;&lt;/b&gt;&lt;/font&gt;&lt;/div&gt;&lt;div style=&quot;font-size: 16px;&quot;&gt;&lt;font color=&quot;#000000&quot;&gt;&lt;b&gt;autoincrement)&lt;/b&gt;&lt;/font&gt;&lt;/div&gt;" id="oLIk3Z_Zjyd05N_7NpLE-46">
          <mxCell style="text;html=1;align=left;verticalAlign=middle;resizable=1;points=[];autosize=0;strokeColor=none;fillColor=none;spacingTop=0;spacing=1;spacingRight=0;spacingLeft=2;absoluteArcSize=0;resizeWidth=1;resizeHeight=1;rotation=0;imageHeight=24;imageWidth=24;strokeWidth=1;dashed=1;dashPattern=1 4;noLabel=0;labelPadding=0;metaEdit=0;movableLabel=0;" vertex="1" parent="oLIk3Z_Zjyd05N_7NpLE-45">
            <mxGeometry y="50" width="250" height="50" as="geometry">
              <mxPoint x="6" y="-2" as="offset" />
            </mxGeometry>
          </mxCell>
        </object>
        <object label="&lt;div style=&quot;font-size: 16px;&quot;&gt;&lt;font color=&quot;#000000&quot;&gt;&lt;b&gt;File_data (BYTEA)&lt;/b&gt;&lt;/font&gt;&lt;/div&gt;" id="oLIk3Z_Zjyd05N_7NpLE-47">
          <mxCell style="text;html=1;align=left;verticalAlign=middle;resizable=1;points=[];autosize=0;strokeColor=none;fillColor=none;spacingTop=0;spacing=1;spacingRight=0;spacingLeft=2;absoluteArcSize=0;resizeWidth=1;resizeHeight=1;rotation=0;imageHeight=24;imageWidth=24;strokeWidth=1;dashed=1;dashPattern=1 4;noLabel=0;labelPadding=0;metaEdit=0;movableLabel=0;" vertex="1" parent="oLIk3Z_Zjyd05N_7NpLE-45">
            <mxGeometry y="130" width="250" height="50" as="geometry">
              <mxPoint x="6" y="-2" as="offset" />
            </mxGeometry>
          </mxCell>
        </object>
        <object label="&lt;div style=&quot;font-size: 16px;&quot;&gt;&lt;font color=&quot;#000000&quot;&gt;&lt;b&gt;File_name (TEXT)&lt;/b&gt;&lt;/font&gt;&lt;/div&gt;" id="oLIk3Z_Zjyd05N_7NpLE-48">
          <mxCell style="text;html=1;align=left;verticalAlign=middle;resizable=1;points=[];autosize=0;strokeColor=none;fillColor=none;spacingTop=0;spacing=1;spacingRight=0;spacingLeft=2;absoluteArcSize=0;resizeWidth=1;resizeHeight=1;rotation=0;imageHeight=24;imageWidth=24;strokeWidth=1;dashed=1;dashPattern=1 4;noLabel=0;labelPadding=0;metaEdit=0;movableLabel=0;" vertex="1" parent="oLIk3Z_Zjyd05N_7NpLE-45">
            <mxGeometry y="95" width="250" height="50" as="geometry">
              <mxPoint x="6" y="-2" as="offset" />
            </mxGeometry>
          </mxCell>
        </object>
        <object label="HR_operations" placeholders="1" id="oLIk3Z_Zjyd05N_7NpLE-49">
          <mxCell style="swimlane;whiteSpace=wrap;html=1;fillColor=#6d8764;fontColor=#ffffff;strokeColor=#3A5431;swimlaneFillColor=#A3A3A3;startSize=40;" vertex="1" parent="WIyWlLk6GJQsqaUBKTNV-1">
            <mxGeometry x="590" y="620" width="260" height="320" as="geometry" />
          </mxCell>
        </object>
        <object label="&lt;div style=&quot;font-size: 16px;&quot;&gt;&lt;font color=&quot;#000000&quot;&gt;&lt;b&gt;ID_action (INT,&amp;nbsp;&lt;/b&gt;&lt;/font&gt;&lt;/div&gt;&lt;div style=&quot;font-size: 16px;&quot;&gt;&lt;font color=&quot;#000000&quot;&gt;&lt;b&gt;autoincrement)&lt;/b&gt;&lt;/font&gt;&lt;/div&gt;" id="oLIk3Z_Zjyd05N_7NpLE-50">
          <mxCell style="text;html=1;align=left;verticalAlign=middle;resizable=1;points=[];autosize=0;strokeColor=none;fillColor=none;spacingTop=0;spacing=1;spacingRight=0;spacingLeft=2;absoluteArcSize=0;resizeWidth=1;resizeHeight=1;rotation=0;imageHeight=24;imageWidth=24;strokeWidth=1;dashed=1;dashPattern=1 4;noLabel=0;labelPadding=0;metaEdit=0;movableLabel=0;" vertex="1" parent="oLIk3Z_Zjyd05N_7NpLE-49">
            <mxGeometry y="50" width="250" height="50" as="geometry">
              <mxPoint x="6" y="-2" as="offset" />
            </mxGeometry>
          </mxCell>
        </object>
        <object label="&lt;div style=&quot;font-size: 16px;&quot;&gt;&lt;font color=&quot;#000000&quot;&gt;&lt;b&gt;Action_type (TEXT)&lt;/b&gt;&lt;/font&gt;&lt;/div&gt;" id="oLIk3Z_Zjyd05N_7NpLE-51">
          <mxCell style="text;html=1;align=left;verticalAlign=middle;resizable=1;points=[];autosize=0;strokeColor=none;fillColor=none;spacingTop=0;spacing=1;spacingRight=0;spacingLeft=2;absoluteArcSize=0;resizeWidth=1;resizeHeight=1;rotation=0;imageHeight=24;imageWidth=24;strokeWidth=1;dashed=1;dashPattern=1 4;noLabel=0;labelPadding=0;metaEdit=0;movableLabel=0;" vertex="1" parent="oLIk3Z_Zjyd05N_7NpLE-49">
            <mxGeometry y="130" width="250" height="50" as="geometry">
              <mxPoint x="6" y="-2" as="offset" />
            </mxGeometry>
          </mxCell>
        </object>
        <object label="&lt;div style=&quot;font-size: 16px;&quot;&gt;&lt;font color=&quot;#000000&quot;&gt;&lt;b&gt;ID_employee (INT)&lt;/b&gt;&lt;/font&gt;&lt;/div&gt;" id="oLIk3Z_Zjyd05N_7NpLE-52">
          <mxCell style="text;html=1;align=left;verticalAlign=middle;resizable=1;points=[];autosize=0;strokeColor=none;fillColor=none;spacingTop=0;spacing=1;spacingRight=0;spacingLeft=2;absoluteArcSize=0;resizeWidth=1;resizeHeight=1;rotation=0;imageHeight=24;imageWidth=24;strokeWidth=1;dashed=1;dashPattern=1 4;noLabel=0;labelPadding=0;metaEdit=0;movableLabel=0;" vertex="1" parent="oLIk3Z_Zjyd05N_7NpLE-49">
            <mxGeometry y="95" width="250" height="50" as="geometry">
              <mxPoint x="6" y="-2" as="offset" />
            </mxGeometry>
          </mxCell>
        </object>
        <object label="&lt;div style=&quot;font-size: 16px;&quot;&gt;&lt;font color=&quot;#000000&quot;&gt;&lt;b&gt;ID_dep (INT)&lt;/b&gt;&lt;/font&gt;&lt;/div&gt;" id="oLIk3Z_Zjyd05N_7NpLE-53">
          <mxCell style="text;html=1;align=left;verticalAlign=middle;resizable=1;points=[];autosize=0;strokeColor=none;fillColor=none;spacingTop=0;spacing=1;spacingRight=0;spacingLeft=2;absoluteArcSize=0;resizeWidth=1;resizeHeight=1;rotation=0;imageHeight=24;imageWidth=24;strokeWidth=1;dashed=1;dashPattern=1 4;noLabel=0;labelPadding=0;metaEdit=0;movableLabel=0;" vertex="1" parent="oLIk3Z_Zjyd05N_7NpLE-49">
            <mxGeometry y="160" width="250" height="50" as="geometry">
              <mxPoint x="6" y="-2" as="offset" />
            </mxGeometry>
          </mxCell>
        </object>
        <object label="&lt;div style=&quot;font-size: 16px;&quot;&gt;&lt;font color=&quot;#000000&quot;&gt;&lt;b&gt;ID_pos (INT)&lt;/b&gt;&lt;/font&gt;&lt;/div&gt;" id="oLIk3Z_Zjyd05N_7NpLE-54">
          <mxCell style="text;html=1;align=left;verticalAlign=middle;resizable=1;points=[];autosize=0;strokeColor=none;fillColor=none;spacingTop=0;spacing=1;spacingRight=0;spacingLeft=2;absoluteArcSize=0;resizeWidth=1;resizeHeight=1;rotation=0;imageHeight=24;imageWidth=24;strokeWidth=1;dashed=1;dashPattern=1 4;noLabel=0;labelPadding=0;metaEdit=0;movableLabel=0;" vertex="1" parent="oLIk3Z_Zjyd05N_7NpLE-49">
            <mxGeometry y="190" width="250" height="50" as="geometry">
              <mxPoint x="6" y="-2" as="offset" />
            </mxGeometry>
          </mxCell>
        </object>
        <object label="&lt;div style=&quot;font-size: 16px;&quot;&gt;&lt;font color=&quot;#000000&quot;&gt;&lt;b&gt;Salary (INT)&lt;/b&gt;&lt;/font&gt;&lt;/div&gt;" id="oLIk3Z_Zjyd05N_7NpLE-55">
          <mxCell style="text;html=1;align=left;verticalAlign=middle;resizable=1;points=[];autosize=0;strokeColor=none;fillColor=none;spacingTop=0;spacing=1;spacingRight=0;spacingLeft=2;absoluteArcSize=0;resizeWidth=1;resizeHeight=1;rotation=0;imageHeight=24;imageWidth=24;strokeWidth=1;dashed=1;dashPattern=1 4;noLabel=0;labelPadding=0;metaEdit=0;movableLabel=0;" vertex="1" parent="oLIk3Z_Zjyd05N_7NpLE-49">
            <mxGeometry y="220" width="250" height="50" as="geometry">
              <mxPoint x="6" y="-2" as="offset" />
            </mxGeometry>
          </mxCell>
        </object>
        <object label="&lt;div style=&quot;font-size: 16px;&quot;&gt;&lt;font color=&quot;#000000&quot;&gt;&lt;b&gt;Action_date (DATE)&lt;/b&gt;&lt;/font&gt;&lt;/div&gt;" id="oLIk3Z_Zjyd05N_7NpLE-56">
          <mxCell style="text;html=1;align=left;verticalAlign=middle;resizable=1;points=[];autosize=0;strokeColor=none;fillColor=none;spacingTop=0;spacing=1;spacingRight=0;spacingLeft=2;absoluteArcSize=0;resizeWidth=1;resizeHeight=1;rotation=0;imageHeight=24;imageWidth=24;strokeWidth=1;dashed=1;dashPattern=1 4;noLabel=0;labelPadding=0;metaEdit=0;movableLabel=0;" vertex="1" parent="oLIk3Z_Zjyd05N_7NpLE-49">
            <mxGeometry y="250" width="250" height="50" as="geometry">
              <mxPoint x="6" y="-2" as="offset" />
            </mxGeometry>
          </mxCell>
        </object>
        <object label="Change_history" placeholders="1" id="oLIk3Z_Zjyd05N_7NpLE-57">
          <mxCell style="swimlane;whiteSpace=wrap;html=1;fillColor=#6d8764;fontColor=#ffffff;strokeColor=#3A5431;swimlaneFillColor=#A3A3A3;startSize=40;" vertex="1" parent="WIyWlLk6GJQsqaUBKTNV-1">
            <mxGeometry x="1260" y="110" width="260" height="240" as="geometry" />
          </mxCell>
        </object>
        <object label="&lt;div style=&quot;font-size: 16px;&quot;&gt;&lt;font color=&quot;#000000&quot;&gt;&lt;b&gt;ID_change (INT,&amp;nbsp;&lt;/b&gt;&lt;/font&gt;&lt;/div&gt;&lt;div style=&quot;font-size: 16px;&quot;&gt;&lt;font color=&quot;#000000&quot;&gt;&lt;b&gt;autoincrement)&lt;/b&gt;&lt;/font&gt;&lt;/div&gt;" id="oLIk3Z_Zjyd05N_7NpLE-58">
          <mxCell style="text;html=1;align=left;verticalAlign=middle;resizable=1;points=[];autosize=0;strokeColor=none;fillColor=none;spacingTop=0;spacing=1;spacingRight=0;spacingLeft=2;absoluteArcSize=0;resizeWidth=1;resizeHeight=1;rotation=0;imageHeight=24;imageWidth=24;strokeWidth=1;dashed=1;dashPattern=1 4;noLabel=0;labelPadding=0;metaEdit=0;movableLabel=0;" vertex="1" parent="oLIk3Z_Zjyd05N_7NpLE-57">
            <mxGeometry y="50" width="250" height="50" as="geometry">
              <mxPoint x="6" y="-2" as="offset" />
            </mxGeometry>
          </mxCell>
        </object>
        <object label="&lt;div style=&quot;font-size: 16px;&quot;&gt;&lt;font color=&quot;#000000&quot;&gt;&lt;b&gt;Changed_by (TEXT)&lt;/b&gt;&lt;/font&gt;&lt;/div&gt;" id="oLIk3Z_Zjyd05N_7NpLE-59">
          <mxCell style="text;html=1;align=left;verticalAlign=middle;resizable=1;points=[];autosize=0;strokeColor=none;fillColor=none;spacingTop=0;spacing=1;spacingRight=0;spacingLeft=2;absoluteArcSize=0;resizeWidth=1;resizeHeight=1;rotation=0;imageHeight=24;imageWidth=24;strokeWidth=1;dashed=1;dashPattern=1 4;noLabel=0;labelPadding=0;metaEdit=0;movableLabel=0;" vertex="1" parent="oLIk3Z_Zjyd05N_7NpLE-57">
            <mxGeometry y="130" width="250" height="50" as="geometry">
              <mxPoint x="6" y="-2" as="offset" />
            </mxGeometry>
          </mxCell>
        </object>
        <object label="&lt;div style=&quot;font-size: 16px;&quot;&gt;&lt;font color=&quot;#000000&quot;&gt;&lt;b&gt;Date_time (TIMESTAMP)&lt;/b&gt;&lt;/font&gt;&lt;/div&gt;" id="oLIk3Z_Zjyd05N_7NpLE-60">
          <mxCell style="text;html=1;align=left;verticalAlign=middle;resizable=1;points=[];autosize=0;strokeColor=none;fillColor=none;spacingTop=0;spacing=1;spacingRight=0;spacingLeft=2;absoluteArcSize=0;resizeWidth=1;resizeHeight=1;rotation=0;imageHeight=24;imageWidth=24;strokeWidth=1;dashed=1;dashPattern=1 4;noLabel=0;labelPadding=0;metaEdit=0;movableLabel=0;" vertex="1" parent="oLIk3Z_Zjyd05N_7NpLE-57">
            <mxGeometry y="95" width="250" height="50" as="geometry">
              <mxPoint x="6" y="-2" as="offset" />
            </mxGeometry>
          </mxCell>
        </object>
        <object label="&lt;div style=&quot;font-size: 16px;&quot;&gt;&lt;font color=&quot;#000000&quot;&gt;&lt;b&gt;Object_type (TEXT)&lt;/b&gt;&lt;/font&gt;&lt;/div&gt;" id="oLIk3Z_Zjyd05N_7NpLE-61">
          <mxCell style="text;html=1;align=left;verticalAlign=middle;resizable=1;points=[];autosize=0;strokeColor=none;fillColor=none;spacingTop=0;spacing=1;spacingRight=0;spacingLeft=2;absoluteArcSize=0;resizeWidth=1;resizeHeight=1;rotation=0;imageHeight=24;imageWidth=24;strokeWidth=1;dashed=1;dashPattern=1 4;noLabel=0;labelPadding=0;metaEdit=0;movableLabel=0;" vertex="1" parent="oLIk3Z_Zjyd05N_7NpLE-57">
            <mxGeometry y="160" width="250" height="50" as="geometry">
              <mxPoint x="6" y="-2" as="offset" />
            </mxGeometry>
          </mxCell>
        </object>
        <object label="&lt;div style=&quot;font-size: 16px;&quot;&gt;&lt;font color=&quot;#000000&quot;&gt;&lt;b&gt;Changed_fields (TEXT)&lt;/b&gt;&lt;/font&gt;&lt;/div&gt;" id="oLIk3Z_Zjyd05N_7NpLE-62">
          <mxCell style="text;html=1;align=left;verticalAlign=middle;resizable=1;points=[];autosize=0;strokeColor=none;fillColor=none;spacingTop=0;spacing=1;spacingRight=0;spacingLeft=2;absoluteArcSize=0;resizeWidth=1;resizeHeight=1;rotation=0;imageHeight=24;imageWidth=24;strokeWidth=1;dashed=1;dashPattern=1 4;noLabel=0;labelPadding=0;metaEdit=0;movableLabel=0;" vertex="1" parent="oLIk3Z_Zjyd05N_7NpLE-57">
            <mxGeometry y="190" width="250" height="50" as="geometry">
              <mxPoint x="6" y="-2" as="offset" />
            </mxGeometry>
          </mxCell>
        </object>
        <object label="Users" placeholders="1" id="oLIk3Z_Zjyd05N_7NpLE-63">
          <mxCell style="swimlane;whiteSpace=wrap;html=1;fillColor=#6d8764;fontColor=#ffffff;strokeColor=#3A5431;swimlaneFillColor=#A3A3A3;startSize=40;" vertex="1" parent="WIyWlLk6GJQsqaUBKTNV-1">
            <mxGeometry x="1260" y="400" width="260" height="270" as="geometry" />
          </mxCell>
        </object>
        <object label="&lt;div style=&quot;font-size: 16px;&quot;&gt;&lt;font color=&quot;#000000&quot;&gt;&lt;b&gt;ID_user (INT,&amp;nbsp;&lt;/b&gt;&lt;/font&gt;&lt;/div&gt;&lt;div style=&quot;font-size: 16px;&quot;&gt;&lt;font color=&quot;#000000&quot;&gt;&lt;b&gt;autoincrement)&lt;/b&gt;&lt;/font&gt;&lt;/div&gt;" id="oLIk3Z_Zjyd05N_7NpLE-64">
          <mxCell style="text;html=1;align=left;verticalAlign=middle;resizable=1;points=[];autosize=0;strokeColor=none;fillColor=none;spacingTop=0;spacing=1;spacingRight=0;spacingLeft=2;absoluteArcSize=0;resizeWidth=1;resizeHeight=1;rotation=0;imageHeight=24;imageWidth=24;strokeWidth=1;dashed=1;dashPattern=1 4;noLabel=0;labelPadding=0;metaEdit=0;movableLabel=0;" vertex="1" parent="oLIk3Z_Zjyd05N_7NpLE-63">
            <mxGeometry y="50" width="250" height="50" as="geometry">
              <mxPoint x="6" y="-2" as="offset" />
            </mxGeometry>
          </mxCell>
        </object>
        <object label="&lt;div style=&quot;font-size: 16px;&quot;&gt;&lt;font color=&quot;#000000&quot;&gt;&lt;b&gt;First_name (TEXT)&lt;/b&gt;&lt;/font&gt;&lt;/div&gt;" id="oLIk3Z_Zjyd05N_7NpLE-65">
          <mxCell style="text;html=1;align=left;verticalAlign=middle;resizable=1;points=[];autosize=0;strokeColor=none;fillColor=none;spacingTop=0;spacing=1;spacingRight=0;spacingLeft=2;absoluteArcSize=0;resizeWidth=1;resizeHeight=1;rotation=0;imageHeight=24;imageWidth=24;strokeWidth=1;dashed=1;dashPattern=1 4;noLabel=0;labelPadding=0;metaEdit=0;movableLabel=0;" vertex="1" parent="oLIk3Z_Zjyd05N_7NpLE-63">
            <mxGeometry y="130" width="250" height="50" as="geometry">
              <mxPoint x="6" y="-2" as="offset" />
            </mxGeometry>
          </mxCell>
        </object>
        <object label="&lt;div style=&quot;font-size: 16px;&quot;&gt;&lt;font color=&quot;#000000&quot;&gt;&lt;b&gt;Last_name (TEXT)&lt;/b&gt;&lt;/font&gt;&lt;/div&gt;" id="oLIk3Z_Zjyd05N_7NpLE-66">
          <mxCell style="text;html=1;align=left;verticalAlign=middle;resizable=1;points=[];autosize=0;strokeColor=none;fillColor=none;spacingTop=0;spacing=1;spacingRight=0;spacingLeft=2;absoluteArcSize=0;resizeWidth=1;resizeHeight=1;rotation=0;imageHeight=24;imageWidth=24;strokeWidth=1;dashed=1;dashPattern=1 4;noLabel=0;labelPadding=0;metaEdit=0;movableLabel=0;" vertex="1" parent="oLIk3Z_Zjyd05N_7NpLE-63">
            <mxGeometry y="95" width="250" height="50" as="geometry">
              <mxPoint x="6" y="-2" as="offset" />
            </mxGeometry>
          </mxCell>
        </object>
        <object label="&lt;div style=&quot;font-size: 16px;&quot;&gt;&lt;font color=&quot;#000000&quot;&gt;&lt;b&gt;Middle_name (TEXT)&lt;/b&gt;&lt;/font&gt;&lt;/div&gt;" id="oLIk3Z_Zjyd05N_7NpLE-67">
          <mxCell style="text;html=1;align=left;verticalAlign=middle;resizable=1;points=[];autosize=0;strokeColor=none;fillColor=none;spacingTop=0;spacing=1;spacingRight=0;spacingLeft=2;absoluteArcSize=0;resizeWidth=1;resizeHeight=1;rotation=0;imageHeight=24;imageWidth=24;strokeWidth=1;dashed=1;dashPattern=1 4;noLabel=0;labelPadding=0;metaEdit=0;movableLabel=0;" vertex="1" parent="oLIk3Z_Zjyd05N_7NpLE-63">
            <mxGeometry y="160" width="250" height="50" as="geometry">
              <mxPoint x="6" y="-2" as="offset" />
            </mxGeometry>
          </mxCell>
        </object>
        <object label="&lt;div style=&quot;font-size: 16px;&quot;&gt;&lt;font color=&quot;#000000&quot;&gt;&lt;b&gt;Login (TEXT)&lt;/b&gt;&lt;/font&gt;&lt;/div&gt;" id="oLIk3Z_Zjyd05N_7NpLE-68">
          <mxCell style="text;html=1;align=left;verticalAlign=middle;resizable=1;points=[];autosize=0;strokeColor=none;fillColor=none;spacingTop=0;spacing=1;spacingRight=0;spacingLeft=2;absoluteArcSize=0;resizeWidth=1;resizeHeight=1;rotation=0;imageHeight=24;imageWidth=24;strokeWidth=1;dashed=1;dashPattern=1 4;noLabel=0;labelPadding=0;metaEdit=0;movableLabel=0;" vertex="1" parent="oLIk3Z_Zjyd05N_7NpLE-63">
            <mxGeometry y="190" width="250" height="50" as="geometry">
              <mxPoint x="6" y="-2" as="offset" />
            </mxGeometry>
          </mxCell>
        </object>
        <object label="&lt;div style=&quot;font-size: 16px;&quot;&gt;&lt;font color=&quot;#000000&quot;&gt;&lt;b&gt;Password (TEXT)&lt;/b&gt;&lt;/font&gt;&lt;/div&gt;" id="oLIk3Z_Zjyd05N_7NpLE-69">
          <mxCell style="text;html=1;align=left;verticalAlign=middle;resizable=1;points=[];autosize=0;strokeColor=none;fillColor=none;spacingTop=0;spacing=1;spacingRight=0;spacingLeft=2;absoluteArcSize=0;resizeWidth=1;resizeHeight=1;rotation=0;imageHeight=24;imageWidth=24;strokeWidth=1;dashed=1;dashPattern=1 4;noLabel=0;labelPadding=0;metaEdit=0;movableLabel=0;" vertex="1" parent="oLIk3Z_Zjyd05N_7NpLE-63">
            <mxGeometry y="220" width="250" height="50" as="geometry">
              <mxPoint x="6" y="-2" as="offset" />
            </mxGeometry>
          </mxCell>
        </object>
        <mxCell id="oLIk3Z_Zjyd05N_7NpLE-71" value="" style="edgeStyle=orthogonalEdgeStyle;rounded=0;orthogonalLoop=1;jettySize=auto;html=1;" edge="1" parent="WIyWlLk6GJQsqaUBKTNV-1" source="oLIk3Z_Zjyd05N_7NpLE-2" target="oLIk3Z_Zjyd05N_7NpLE-15">
          <mxGeometry relative="1" as="geometry">
            <mxPoint x="-10" y="520" as="targetPoint" />
            <Array as="points">
              <mxPoint x="-40" y="170" />
              <mxPoint x="-40" y="520" />
            </Array>
          </mxGeometry>
        </mxCell>
        <mxCell id="oLIk3Z_Zjyd05N_7NpLE-78" style="edgeStyle=orthogonalEdgeStyle;rounded=0;orthogonalLoop=1;jettySize=auto;html=1;" edge="1" parent="WIyWlLk6GJQsqaUBKTNV-1" target="oLIk3Z_Zjyd05N_7NpLE-22">
          <mxGeometry relative="1" as="geometry">
            <mxPoint x="312" y="466" as="sourcePoint" />
            <Array as="points">
              <mxPoint x="312" y="470" />
              <mxPoint x="380" y="470" />
              <mxPoint x="380" y="840" />
            </Array>
          </mxGeometry>
        </mxCell>
        <mxCell id="oLIk3Z_Zjyd05N_7NpLE-79" style="edgeStyle=orthogonalEdgeStyle;rounded=0;orthogonalLoop=1;jettySize=auto;html=1;entryX=0.96;entryY=0.3;entryDx=0;entryDy=0;entryPerimeter=0;" edge="1" parent="WIyWlLk6GJQsqaUBKTNV-1" source="oLIk3Z_Zjyd05N_7NpLE-38" target="oLIk3Z_Zjyd05N_7NpLE-26">
          <mxGeometry relative="1" as="geometry">
            <Array as="points">
              <mxPoint x="850" y="170" />
              <mxPoint x="850" y="220" />
            </Array>
          </mxGeometry>
        </mxCell>
        <mxCell id="oLIk3Z_Zjyd05N_7NpLE-80" style="edgeStyle=orthogonalEdgeStyle;rounded=0;orthogonalLoop=1;jettySize=auto;html=1;" edge="1" parent="WIyWlLk6GJQsqaUBKTNV-1" source="oLIk3Z_Zjyd05N_7NpLE-46" target="oLIk3Z_Zjyd05N_7NpLE-25">
          <mxGeometry relative="1" as="geometry">
            <Array as="points">
              <mxPoint x="850" y="540" />
              <mxPoint x="850" y="260" />
              <mxPoint x="785" y="260" />
              <mxPoint x="785" y="265" />
            </Array>
          </mxGeometry>
        </mxCell>
        <mxCell id="oLIk3Z_Zjyd05N_7NpLE-81" style="edgeStyle=orthogonalEdgeStyle;rounded=0;orthogonalLoop=1;jettySize=auto;html=1;" edge="1" parent="WIyWlLk6GJQsqaUBKTNV-1" source="oLIk3Z_Zjyd05N_7NpLE-24" target="oLIk3Z_Zjyd05N_7NpLE-52">
          <mxGeometry relative="1" as="geometry">
            <Array as="points">
              <mxPoint x="470" y="185" />
              <mxPoint x="470" y="740" />
            </Array>
          </mxGeometry>
        </mxCell>
        <mxCell id="oLIk3Z_Zjyd05N_7NpLE-83" style="edgeStyle=orthogonalEdgeStyle;rounded=0;orthogonalLoop=1;jettySize=auto;html=1;" edge="1" parent="WIyWlLk6GJQsqaUBKTNV-1" source="oLIk3Z_Zjyd05N_7NpLE-14" target="oLIk3Z_Zjyd05N_7NpLE-53">
          <mxGeometry relative="1" as="geometry">
            <Array as="points">
              <mxPoint x="520" y="485" />
              <mxPoint x="520" y="805" />
            </Array>
          </mxGeometry>
        </mxCell>
        <mxCell id="oLIk3Z_Zjyd05N_7NpLE-84" style="edgeStyle=orthogonalEdgeStyle;rounded=0;orthogonalLoop=1;jettySize=auto;html=1;" edge="1" parent="WIyWlLk6GJQsqaUBKTNV-1" source="oLIk3Z_Zjyd05N_7NpLE-20" target="oLIk3Z_Zjyd05N_7NpLE-54">
          <mxGeometry relative="1" as="geometry">
            <Array as="points">
              <mxPoint x="350" y="795" />
              <mxPoint x="350" y="830" />
            </Array>
          </mxGeometry>
        </mxCell>
      </root>
    </mxGraphModel>
  </diagram>
</mxfile>
